<?xml version="1.0" standalone="no"?>
<!DOCTYPE svg PUBLIC "-//W3C//DTD SVG 1.1//EN" "http://www.w3.org/Graphics/SVG/1.1/DTD/svg11.dtd" >
<svg xmlns="http://www.w3.org/2000/svg">
<metadata>Generated by IcoMoon</metadata>
<defs>
<font id="leoikea" horiz-adv-x="1024">
<font-face units-per-em="1024" ascent="960" descent="-64" />
<missing-glyph horiz-adv-x="1024" />
<glyph unicode="&#x20;" horiz-adv-x="512" d="" />
<glyph unicode="&#xe900;" glyph-name="arrow-down" d="M512 200.533c-46.848 0.688-89.020 20.147-119.439 51.172l-0.027 0.028-298.667 298.667c-15.084 15.38-24.393 36.469-24.393 59.733s9.31 44.354 24.407 59.747l-0.013-0.014c15.38 15.084 36.469 24.393 59.733 24.393s44.354-9.31 59.747-24.407l-0.014 0.013 298.667-298.667 298.667 298.667c14.084 10.655 31.893 17.067 51.2 17.067 47.128 0 85.333-38.205 85.333-85.333 0-19.307-6.412-37.116-17.222-51.415l0.156 0.215-290.133-298.667c-31.009-31.671-74.204-51.306-121.984-51.306-2.116 0-4.222 0.038-6.319 0.115l0.303-0.009z" />
<glyph unicode="&#xe901;" glyph-name="arrow-left" d="M264.533 448c0.688 46.848 20.147 89.020 51.172 119.439l0.028 0.027 298.667 298.667c15.38 15.084 36.469 24.393 59.733 24.393s44.354-9.31 59.747-24.407l-0.014 0.013c15.084-15.38 24.393-36.469 24.393-59.733s-9.31-44.354-24.407-59.747l0.013 0.014-298.667-298.667 298.667-298.667c10.655-14.084 17.067-31.893 17.067-51.2 0-47.128-38.205-85.333-85.333-85.333-19.307 0-37.116 6.412-51.415 17.222l0.215-0.156-298.667 290.133c-31.671 31.009-51.306 74.204-51.306 121.984 0 2.116 0.038 4.222 0.115 6.319l-0.009-0.303z" />
<glyph unicode="&#xe902;" glyph-name="arrow-right" d="M759.467 448c-0.688-46.848-20.147-89.020-51.172-119.439l-0.028-0.027-298.667-298.667c-14.084-10.655-31.893-17.067-51.2-17.067-47.128 0-85.333 38.205-85.333 85.333 0 19.307 6.412 37.116 17.222 51.415l-0.156-0.215 298.667 298.667-298.667 298.667c-15.084 15.38-24.393 36.469-24.393 59.733s9.31 44.354 24.407 59.747l-0.013-0.014c15.38 15.084 36.469 24.393 59.733 24.393s44.354-9.31 59.747-24.407l-0.014 0.013 298.667-290.133c31.671-31.009 51.306-74.204 51.306-121.984 0-2.116-0.038-4.222-0.115-6.319l0.009 0.303z" />
<glyph unicode="&#xe903;" glyph-name="arrow-up" d="M512 695.467c46.848-0.688 89.020-20.147 119.439-51.172l0.027-0.028 298.667-298.667c10.655-14.084 17.067-31.893 17.067-51.2 0-47.128-38.205-85.333-85.333-85.333-19.307 0-37.116 6.412-51.415 17.222l0.215-0.156-298.667 298.667-298.667-298.667c-15.38-15.084-36.469-24.393-59.733-24.393s-44.354 9.31-59.747 24.407l0.014-0.013c-15.084 15.38-24.393 36.469-24.393 59.733s9.31 44.354 24.407 59.747l-0.013-0.014 290.133 298.667c31.009 31.671 74.204 51.306 121.984 51.306 2.116 0 4.222-0.038 6.319-0.115l-0.303 0.009z" />
<glyph unicode="&#xe904;" glyph-name="ben-1" d="M0 587.52c0 0.002 0 0.004 0 0.006 0 12.866 10.43 23.296 23.296 23.296 0.18 0 0.36-0.002 0.539-0.006h127.973c0.732 0.082 1.58 0.128 2.439 0.128 12.866 0 23.296-10.43 23.296-23.296s-10.43-23.296-23.296-23.296c-0.859 0-1.707 0.046-2.542 0.137l0.103-0.009h-128c-0.229-0.008-0.498-0.013-0.768-0.013-12.725 0-23.040 10.315-23.040 23.040 0 0.005 0 0.009 0 0.014v-0.001zM177.152 238.592h213.248c12.866 0 23.296 10.43 23.296 23.296s-10.43 23.296-23.296 23.296h-141.824l7.424 40.192c0.277 1.37 0.435 2.945 0.435 4.556 0 11.632-8.254 21.337-19.224 23.577l-0.155 0.026c-1.505 0.342-3.234 0.539-5.009 0.539-11.478 0-21.038-8.211-23.128-19.079l-0.024-0.148-9.472-49.664h-22.272c-12.866 0-23.296-10.43-23.296-23.296s10.43-23.296 23.296-23.296v0zM74.752 692.48c0 0.004 0 0.008 0 0.013 0 12.725 10.315 23.040 23.040 23.040 0.27 0 0.539-0.005 0.807-0.014l-0.039 0.001h183.040c-0.047 0.308-0.074 0.663-0.074 1.024s0.027 0.716 0.078 1.063l-0.005-0.039 21.504 94.464c2.564 11.143 12.146 19.418 23.75 19.966l0.058 0.002h673.28c7.534-0.579 14.087-4.339 18.388-9.924l0.044-0.060c3.399-4.305 5.452-9.809 5.452-15.793 0-1.933-0.214-3.816-0.62-5.626l0.032 0.171-120.576-618.496c-13.928-65.719-69.884-114.865-137.89-118.258l-0.35-0.014h-577.024c-0.021 0-0.045 0-0.069 0-7.437 0-14.059 3.485-18.325 8.91l-0.038 0.050c-3.426 4.315-5.497 9.84-5.497 15.85 0 1.546 0.137 3.059 0.399 4.529l-0.023-0.155 12.544 66.304c2.141 11.13 11.802 19.424 23.401 19.424 1.685 0 3.328-0.175 4.914-0.508l-0.155 0.027c11.19-2.902 19.319-12.91 19.319-24.818 0-1.543-0.136-3.054-0.398-4.521l0.023 0.155-6.912-38.656h547.84c45.46 4.090 82.106 37.347 91.274 80.74l0.118 0.668 114.944 593.408h-167.936l-62.464-313.6c-1.518-8.753-6.974-15.98-14.44-19.895l-0.152-0.073c-2.649-1.079-5.72-1.732-8.936-1.792h-0.024c-5.115 0.132-9.807 1.841-13.635 4.655l0.067-0.047-95.232 67.84-108.032-68.096c-3.63-2.313-8.055-3.687-12.8-3.687s-9.17 1.374-12.898 3.745l0.098-0.058c-6.182 5.015-10.1 12.611-10.1 21.122 0 1.582 0.135 3.132 0.395 4.639l-0.023-0.161 59.648 305.408h-179.2l-14.848-69.888h39.68c0.732 0.082 1.58 0.128 2.439 0.128 12.866 0 23.296-10.43 23.296-23.296s-10.43-23.296-23.296-23.296c-0.859 0-1.707 0.046-2.542 0.137l0.103-0.009h-272.384c-0.152-0.004-0.332-0.006-0.512-0.006-12.866 0-23.296 10.43-23.296 23.296 0 0.002 0 0.004 0 0.006v0zM522.24 527.616l74.24 45.056c3.57 2.252 7.875 3.657 12.495 3.838l0.049 0.002c0.22 0.007 0.478 0.012 0.737 0.012 4.777 0 9.219-1.438 12.915-3.905l-0.085 0.053 78.336-54.784 53.248 267.52h-180.736zM285.952 389.888c12.866 0 23.296 10.43 23.296 23.296s-10.43 23.296-23.296 23.296h-8.704l32 168.704c0.303 1.418 0.477 3.047 0.477 4.717 0 11.548-8.31 21.154-19.277 23.165l-0.144 0.022c-1.567 0.38-3.366 0.598-5.216 0.598-11.308 0-20.713-8.146-22.667-18.889l-0.021-0.141-34.048-179.2h-100.352c-12.866 0-23.296-10.43-23.296-23.296s10.43-23.296 23.296-23.296v0zM92.928 285.184h-44.288c-12.866 0-23.296-10.43-23.296-23.296s10.43-23.296 23.296-23.296h44.288c12.866 0 23.296 10.43 23.296 23.296s-10.43 23.296-23.296 23.296v0z" />
<glyph unicode="&#xe905;" glyph-name="ben-2" d="M819.2 259.584h-131.328c0.187 1.575 0.293 3.399 0.293 5.248s-0.107 3.673-0.314 5.467l0.021-0.219v203.52c0 13.149-10.659 23.808-23.808 23.808v0h-305.664c0 0-0.001 0-0.001 0-13.2 0-23.918-10.628-24.063-23.794v-213.518h-129.536c-13.29 0-24.064-10.774-24.064-24.064v0-237.312c-0.001-0.076-0.001-0.166-0.001-0.256 0-13.29 10.774-24.064 24.064-24.064 0 0 0.001 0 0.001 0h271.36c8.429 0.036 16.432 1.822 23.676 5.013l-0.38-0.149c3.865-3.033 8.798-4.865 14.16-4.865 0.062 0 0.124 0 0.186 0.001h271.35c0.305-0.006 0.664-0.009 1.025-0.009 32.29 0 58.483 26.106 58.623 58.363v203.021c-0.117 13.201-10.846 23.857-24.063 23.857-0.541 0-1.077-0.018-1.609-0.053l0.072 0.004zM647.168 211.968h34.816v-49.664l-7.68 4.608c-3.63 2.313-8.055 3.687-12.8 3.687s-9.17-1.374-12.898-3.745l0.098 0.058zM527.872 448v-49.664l-7.936 4.864c-3.607 2.080-7.93 3.313-12.54 3.328h-0.004c-0.127 0.003-0.276 0.004-0.426 0.004-5.036 0-9.691-1.634-13.462-4.401l0.064 0.045v45.824zM384 448h61.952v-92.16c0.060-9.212 5.286-17.189 12.923-21.185l0.133-0.063c3.088-1.615 6.745-2.563 10.623-2.563 0.135 0 0.27 0.001 0.405 0.003h-0.020c0.127-0.003 0.276-0.004 0.426-0.004 5.036 0 9.691 1.634 13.462 4.401l25.536 17.875 30.72-18.944c3.672-2.156 8.087-3.43 12.8-3.43s9.128 1.274 12.921 3.495l-0.121-0.065c7.387 4.203 12.288 12.022 12.288 20.986 0 0.002 0 0.004 0 0.007v0 91.648h61.952v-179.2c0-5.938-4.814-10.752-10.752-10.752v0h-245.248zM339.456 210.688h34.816v-49.664l-7.68 4.608c-3.63 2.313-8.055 3.687-12.8 3.687s-9.17-1.374-12.898-3.745l0.098 0.058zM487.68 31.488c0-5.938-4.814-10.752-10.752-10.752v0h-248.576v191.232h62.208v-92.416c0-0.041 0-0.089 0-0.137 0-9.125 5.134-17.052 12.671-21.048l0.129-0.062c3.227-1.505 6.994-2.436 10.964-2.559l0.044-0.001c5.168 0.096 9.94 1.708 13.913 4.409l-0.089-0.057 25.6 17.92 30.976-18.688c3.445-2.051 7.597-3.264 12.032-3.264s8.587 1.213 12.142 3.324l-0.11-0.060c7.37 4.010 12.289 11.696 12.289 20.532 0 0.072 0 0.144-0.001 0.215v-0.011 91.904h65.28zM796.672 31.488c0-5.938-4.814-10.752-10.752-10.752v0h-248.32v191.232h62.208v-92.416c0-0.041 0-0.089 0-0.137 0-9.125 5.134-17.052 12.671-21.048l0.129-0.062c3.227-1.505 6.994-2.436 10.964-2.559l0.044-0.001c5.168 0.096 9.94 1.708 13.913 4.409l-0.089-0.057 25.6 17.92 30.976-18.688c3.445-2.051 7.597-3.264 12.032-3.264s8.587 1.213 12.142 3.324l-0.11-0.060c7.37 4.010 12.289 11.696 12.289 20.532 0 0.072 0 0.144-0.001 0.215v-0.011 91.904h65.536zM1012.48 655.104l-488.96 263.68c-3.295 1.805-7.22 2.867-11.392 2.867s-8.097-1.062-11.518-2.93l0.126 0.063-488.192-262.4c-7.492-4.176-12.475-12.051-12.475-21.090 0-4.083 1.017-7.928 2.811-11.296l-0.063 0.13c4.592-7.311 12.612-12.1 21.751-12.1 3.905 0 7.606 0.874 10.917 2.438l-0.156-0.066 44.288 23.808v-640c1.298-12.18 11.519-21.585 23.936-21.585s22.638 9.405 23.927 21.48l0.009 0.106v548.864h768.512v-548.608c1.298-12.18 11.519-21.585 23.936-21.585s22.638 9.405 23.927 21.48l0.009 0.106v640l44.288-23.808c3.273-1.714 7.14-2.747 11.242-2.816h0.022c0.087-0.001 0.189-0.002 0.291-0.002 13.149 0 23.808 10.659 23.808 23.808 0 9.038-5.036 16.899-12.454 20.932l-0.125 0.062zM128 594.688v46.080h768v-46.080zM173.568 688.384l338.432 182.272 338.944-182.272z" />
<glyph unicode="&#xe906;" glyph-name="ben-3" d="M722.432 614.912c-51.32 60.283-127.272 98.271-212.096 98.271s-160.776-37.988-211.77-97.879l-0.326-0.392c-3.104-2.374-5.608-5.37-7.357-8.814l-0.067-0.146c-35.297-45.022-56.603-102.48-56.603-164.915 0-64.459 22.711-123.614 60.567-169.899l-0.38 0.479 1.536-1.792c51.317-61.792 128.164-100.848 214.133-100.848 84.441 0 160.082 37.68 211.025 97.144l0.314 0.376h1.28c39.328 46.473 63.237 107.090 63.237 173.291 0 64.933-23.002 124.494-61.302 170.978l0.369-0.461zM696.832 311.552c-24.967 10.297-54.482 19.15-85.032 25.108l-3.032 0.492c5.138 23.57 8.797 51.328 10.192 79.681l0.048 1.215h118.528c-4.544-40.43-19.318-76.72-41.649-107.113l0.433 0.617zM283.136 417.792h109.568c1.539-29.719 5.286-57.55 11.12-84.605l-0.624 3.453c-30.857-5.802-57.985-13.776-83.921-24.103l3.025 1.063c-20.835 29.279-34.871 64.763-39.080 103.202l-0.088 0.99zM321.28 567.808c22.5-8.912 49.43-16.869 77.204-22.501l3.18-0.539c-4.833-23.433-8.138-50.897-9.188-78.938l-0.028-0.934h-109.312c4.091 38.895 17.771 73.951 38.61 103.612l-0.466-0.7zM510.208 666.368h1.792c15.398-23.787 28.287-51.207 37.265-80.341l0.623-2.347c-14.336 0-28.928-1.792-44.032-1.792s-30.976 0-46.080 2.048c9.724 31.204 22.599 58.353 38.683 83.233l-0.795-1.313zM572.16 657.664c35.596-10.204 66.28-27.883 91.533-51.329l-0.141 0.129c-18.107-6.634-39.946-12.576-62.406-16.748l-2.618-0.404c-7.504 26.365-16.484 49.048-27.395 70.587l1.027-2.235zM440.32 464.896c1.080 26.553 4.107 51.634 8.961 76.056l-0.513-3.096c18.944-1.792 38.4-3.072 57.856-3.072s37.632 0 56.064 2.816c4.361-21.27 7.388-46.263 8.418-71.769l0.030-0.935zM570.88 417.792c-1.391-27.156-4.865-52.612-10.299-77.334l0.571 3.094c-17.92 1.792-36.096 2.816-54.528 2.816s-37.888 0-56.32-2.816c-4.811 21.472-8.368 46.905-9.919 72.878l-0.065 1.362zM412.672 590.592c-22.96 4.458-42.468 9.68-61.435 16.076l3.323-0.972c23.029 21.385 50.721 38.099 81.35 48.43l1.594 0.466c-8.79-17.718-17.223-38.926-23.998-60.862l-0.834-3.138zM415.232 291.072c7.5-24.99 16.198-46.37 26.626-66.717l-1.026 2.205c-33.236 10.774-61.867 27.592-85.968 49.336l0.208-0.184c16.56 5.801 36.778 11.124 57.519 14.955l2.641 0.405zM462.848 297.472c14.592 1.28 29.184 1.792 43.776 1.792s28.16 0 41.728-1.792c-10.435-30.946-23.961-57.798-40.676-82.301l0.74 1.149h-5.632c-16.056 23.349-29.59 50.21-39.261 78.849l-0.675 2.303zM596.224 291.328c25.644-4.63 47.922-10.574 69.452-18.112l-3.148 0.96c-25.946-23.516-57.597-41.233-92.606-50.826l-1.602-0.374c10.357 19.324 19.831 41.965 27.155 65.552l0.749 2.8zM618.752 464.896c-1.127 28.956-4.338 56.339-9.51 83.023l0.55-3.407c33.381 6.446 62.72 15.298 90.721 26.746l-3.169-1.146c21.101-29.468 35.321-65.216 39.591-103.962l0.089-0.998zM975.872 441.856c10.022 12.17 16.099 27.916 16.099 45.081 0 39.305-31.863 71.168-71.168 71.168s-71.168-31.863-71.168-71.168c0-16.475 5.598-31.643 14.996-43.704l-0.119 0.159c-30.722-17.975-51.063-50.757-51.2-88.3v-0.020c1.291-12.045 11.4-21.343 23.68-21.343s22.389 9.298 23.671 21.238l0.009 0.105c2.072 30.117 27.011 53.762 57.472 53.762s55.4-23.645 57.462-53.583l0.010-0.179c0-13.149 10.659-23.808 23.808-23.808s23.808 10.659 23.808 23.808v0c0.001 0.129 0.001 0.281 0.001 0.433 0 36.124-18.705 67.878-46.958 86.107l-0.403 0.244zM921.6 509.696c12.755-0.145 23.040-10.519 23.040-23.295 0-12.866-10.43-23.296-23.296-23.296s-23.295 10.429-23.296 23.294v0c0.145 12.897 10.633 23.296 23.551 23.296 0 0 0.001 0 0.001 0v0zM439.040 734.976c13.007 0 23.552 10.545 23.552 23.552v0c2.072 30.117 27.011 53.762 57.472 53.762s55.4-23.645 57.462-53.583l0.010-0.179c0-13.149 10.659-23.808 23.808-23.808s23.808 10.659 23.808 23.808v0c-0.182 36.456-19.152 68.443-47.716 86.792l-0.412 0.248c10.013 11.894 16.105 27.377 16.128 44.283v0.005c0 39.305-31.863 71.168-71.168 71.168s-71.168-31.863-71.168-71.168v0c0.077-16.287 5.654-31.256 14.965-43.163l-0.117 0.155c-30.722-17.975-51.063-50.757-51.2-88.3v-0.020c0-0.007 0-0.014 0-0.022 0-13.007 10.545-23.552 23.552-23.552 0.36 0 0.718 0.008 1.075 0.024l-0.051-0.002zM521.984 914.176c12.755-0.145 23.040-10.519 23.040-23.295 0-12.866-10.43-23.296-23.296-23.296s-23.295 10.429-23.296 23.294v0c0.698 12.445 10.96 22.272 23.517 22.272 0.012 0 0.024 0 0.037 0h-0.002zM577.024 47.36c9.561 11.397 15.56 26.067 16.125 42.12l0.003 0.12c0 39.305-31.863 71.168-71.168 71.168s-71.168-31.863-71.168-71.168v0c0.034-16.208 5.621-31.106 14.958-42.897l-0.11 0.145c-30.722-17.975-51.063-50.757-51.2-88.3v-0.020c1.291-12.045 11.4-21.343 23.68-21.343s22.389 9.298 23.671 21.238l0.009 0.105c2.072 30.117 27.011 53.762 57.472 53.762s55.4-23.645 57.462-53.583l0.010-0.179c0-13.149 10.659-23.808 23.808-23.808s23.808 10.659 23.808 23.808v0c0.007 0.432 0.010 0.941 0.010 1.451 0 36.127-18.709 67.885-46.967 86.113l-0.403 0.244zM521.984 114.944c12.755-0.145 23.040-10.519 23.040-23.295 0-12.866-10.43-23.296-23.296-23.296s-23.295 10.429-23.296 23.294v0c0.562 12.419 10.767 22.274 23.274 22.274 0.098 0 0.196-0.001 0.293-0.002h-0.015zM163.584 356.096c0-13.149 10.659-23.808 23.808-23.808s23.808 10.659 23.808 23.808v0c-0.077 36.468-19.206 68.451-47.959 86.534l-0.425 0.25c9.963 11.666 16.115 26.849 16.383 43.463l0.001 0.057c0 39.305-31.863 71.168-71.168 71.168s-71.168-31.863-71.168-71.168v0c-0.005-0.305-0.008-0.666-0.008-1.027 0-15.884 5.398-30.507 14.459-42.135l-0.115 0.153c-30.722-17.975-51.063-50.757-51.2-88.3v-0.020c0-13.149 10.659-23.808 23.808-23.808s23.808 10.659 23.808 23.808v0c2.072 30.117 27.011 53.762 57.472 53.762s55.4-23.645 57.462-53.583l0.010-0.179zM107.776 509.696c12.755-0.145 23.040-10.519 23.040-23.295 0-12.866-10.43-23.296-23.296-23.296s-23.295 10.429-23.296 23.294v0c0.129 12.548 10.050 22.737 22.477 23.294l0.051 0.002zM392.704 50.944c-3.507-9.055-12.146-15.36-22.259-15.36-0.005 0-0.009 0-0.014 0h0.001c-1.232-0.236-2.648-0.371-4.096-0.371s-2.864 0.135-4.237 0.393l0.141-0.022c-114.55 41.444-204.827 126.219-252.597 234.023l-1.099 2.777c-1.22 2.718-1.93 5.892-1.93 9.231 0 9.735 6.038 18.061 14.574 21.435l0.156 0.054c3.131 1.62 6.833 2.569 10.758 2.569 9.431 0 17.581-5.483 21.436-13.436l0.062-0.142c43.584-98.556 124-174.137 223.346-210.339l2.702-0.861c8.662-3.443 14.675-11.753 14.675-21.468 0-3.055-0.595-5.971-1.674-8.639l0.055 0.155zM920.064 294.4c-42.422-111.479-126.006-199.143-231.718-245.942l-2.778-1.098c-2.789-1.223-6.033-1.968-9.442-2.047l-0.030-0.001c-12.723 0.365-22.897 10.766-22.897 23.543 0 8.923 4.962 16.688 12.278 20.684l0.123 0.062c96.504 42.699 170.855 120.713 207.747 217.244l0.893 2.66c3.465 9.139 12.146 15.517 22.318 15.517 2.923 0 5.723-0.527 8.311-1.491l-0.165 0.054c9.566-3.14 16.351-11.99 16.351-22.424 0-2.411-0.362-4.737-1.035-6.927l0.044 0.167zM640 827.648c3.712 8.796 12.265 14.858 22.233 14.858 3.049 0 5.966-0.567 8.651-1.602l-0.165 0.056c96.255-38.532 173.635-107.306 222.095-194.383l1.137-2.225c1.71-3.182 2.714-6.962 2.714-10.977 0-8.94-4.981-16.716-12.319-20.706l-0.124-0.062c-3.273-1.714-7.14-2.747-11.242-2.816h-0.022c-9.014 0.052-16.848 5.053-20.929 12.421l-0.063 0.123c-44.119 79.454-112.989 140.628-196.042 173.923l-2.614 0.925c-8.843 3.44-14.996 11.885-14.996 21.767 0 3.134 0.619 6.123 1.741 8.852l-0.056-0.155zM116.224 625.408c50.97 103.561 138.841 182.445 246.045 220.498l3.043 0.942c2.31 0.812 4.973 1.281 7.746 1.281 10.447 0 19.339-6.657 22.666-15.961l0.052-0.168c0.817-2.29 1.289-4.932 1.289-7.684 0-10.26-6.561-18.988-15.716-22.217l-0.165-0.051c-98.176-34.757-176.447-104.957-220.937-194.852l-1.015-2.268c-4.22-7.828-12.196-13.154-21.449-13.566l-0.055-0.002c-0.007 0-0.015 0-0.022 0-3.713 0-7.228 0.85-10.36 2.366l0.142-0.062c-8.178 3.735-13.759 11.843-13.759 21.254 0 3.826 0.922 7.436 2.556 10.621l-0.061-0.131z" />
<glyph unicode="&#xe907;" glyph-name="ben-4" d="M371.712 171.264c-5.834-0.038-11.476-0.783-16.869-2.152l0.485 0.104c-19.164-4.449-35.030-16.134-44.88-31.954l-0.176-0.302c-6.906-10.992-11.004-24.355-11.004-38.676 0-5.71 0.651-11.268 1.884-16.603l-0.096 0.495c7.403-32.577 36.098-56.535 70.396-56.576h0.004c0.186-0.002 0.406-0.003 0.626-0.003 5.499 0 10.845 0.654 15.965 1.889l-0.463-0.094c19.153 4.477 35.009 16.154 44.88 31.954l0.176 0.302c7.007 11.003 11.167 24.411 11.167 38.792 0 5.946-0.711 11.726-2.053 17.259l0.102-0.499c-7.399 32.318-35.905 56.064-69.958 56.064-0.065 0-0.131 0-0.196 0h0.010zM393.984 84.224c-3.607-5.91-9.391-10.189-16.212-11.743l-0.172-0.033c-2.519-0.91-5.425-1.436-8.455-1.436-14.138 0-25.6 11.462-25.6 25.6 0 6.090 2.126 11.683 5.677 16.077l-0.038-0.049c3.607 5.91 9.391 10.189 16.212 11.743l0.172 0.033c0.922 0.118 1.989 0.185 3.072 0.185s2.15-0.067 3.197-0.198l-0.125 0.013c0.139 0.003 0.302 0.004 0.466 0.004 12.419 0 22.773-8.844 25.107-20.577l0.027-0.163c0.415-1.726 0.653-3.708 0.653-5.745 0-5.087-1.484-9.828-4.042-13.812l0.061 0.102zM972.8 221.44c-2.38 10.236-11.423 17.747-22.22 17.747-1.834 0-3.618-0.217-5.327-0.626l0.155 0.031-418.816-97.792c-3.444 12.573-7.723 23.457-12.999 33.746l0.455-0.978 354.304 81.92c20.84 4.765 38.086 17.494 48.706 34.74l0.19 0.332c7.496 11.894 11.943 26.362 11.943 41.868 0 6.213-0.714 12.258-2.064 18.060l0.105-0.536-72.96 320c-1.237 6.102-4.888 11.179-9.891 14.282l-0.093 0.054c-3.455 2.266-7.69 3.614-12.239 3.614-1.742 0-3.437-0.198-5.065-0.572l0.152 0.029-31.232-7.168c0.074 1.225 0.116 2.657 0.116 4.098 0 5.441-0.602 10.742-1.743 15.839l0.091-0.481-55.296 242.432c-1.388 6.103-5.104 11.158-10.144 14.28l-0.096 0.056c-3.58 2.506-8.026 4.004-12.821 4.004-1.532 0-3.029-0.153-4.475-0.444l0.144 0.024-361.216-84.224c-6.065-1.303-11.070-5.051-14.026-10.138l-0.054-0.102c-2.272-3.509-3.622-7.797-3.622-12.402 0-1.774 0.201-3.502 0.58-5.161l-0.030 0.155 59.648-261.376-40.96-9.472c-10.182-2.42-17.639-11.437-17.639-22.195 0-1.659 0.177-3.276 0.514-4.835l-0.027 0.15 66.56-291.84c-8.909 1.753-19.17 2.776-29.663 2.816h-0.033c-4.608 0-8.96 0-13.568 0l-137.216 601.088c-1.632 6.818-6.026 12.386-11.905 15.554l-0.127 0.062-124.416 63.488c-2.995 1.548-6.537 2.456-10.291 2.456-8.909 0-16.624-5.113-20.369-12.565l-0.060-0.131c-1.637-3.045-2.6-6.663-2.6-10.506 0-8.821 5.069-16.457 12.453-20.155l0.13-0.059 115.456-58.88 62.976-276.48-69.12-161.024c-0.789-2.133-1.246-4.597-1.246-7.168s0.457-5.035 1.293-7.315l-0.047 0.147 51.2-227.84c-8.216-18.87-12.997-40.852-12.997-63.952 0-12.814 1.471-25.284 4.253-37.251l-0.217 1.106c16.455-72.329 80.036-125.564 156.117-125.952h0.043c0.166-0.001 0.363-0.001 0.56-0.001 12.605 0 24.86 1.493 36.6 4.313l-1.064-0.216c71.51 17.341 123.948 80.363 124.927 155.795l0.001 0.109 422.656 97.792c10.496 2.294 18.239 11.51 18.239 22.534 0 1.813-0.209 3.577-0.605 5.27l0.031-0.156zM665.6 476.672l-39.68 13.312c-2.227 0.82-4.799 1.294-7.482 1.294-6.713 0-12.732-2.97-16.815-7.667l-0.023-0.027-20.736-23.296-25.6 116.736 84.736 19.456zM583.424 802.304l-20.224 6.912c-2.227 0.82-4.799 1.294-7.482 1.294-6.713 0-12.732-2.97-16.815-7.667l-0.023-0.027-8.704-9.728-18.176 72.96 53.248 12.288zM384 836.096l85.248 19.712 25.6-116.224c1.818-8.395 8.124-14.957 16.227-17.116l0.157-0.036c0.884-0.119 1.906-0.187 2.944-0.187s2.060 0.068 3.062 0.199l-0.118-0.013c0.090-0.001 0.197-0.002 0.304-0.002 6.635 0 12.576 2.969 16.567 7.652l0.025 0.030 29.184 30.72 45.312-15.36c1.077-0.175 2.319-0.274 3.584-0.274s2.507 0.1 3.718 0.292l-0.134-0.017c0 0 0.001 0 0.001 0 12.583 0 22.784 10.201 22.784 22.784 0 0.090-0.001 0.18-0.002 0.27v-0.014c-0.009 2.929-0.477 5.745-1.334 8.386l0.054-0.194-25.6 113.408 88.064 18.688 51.2-219.904c0.29-1.258 0.456-2.703 0.456-4.187 0-3.86-1.124-7.457-3.063-10.483l0.047 0.078c-2.552-4.341-6.716-7.502-11.651-8.679l-0.125-0.025-296.96-68.608zM384 537.6l40.96 9.472 87.040 19.712 36.352-160c1.915-8.426 8.304-14.986 16.482-17.117l0.158-0.035c0.846-0.119 1.823-0.187 2.816-0.187s1.97 0.068 2.927 0.2l-0.111-0.013c0.028 0 0.061 0 0.094 0 6.778 0 12.864 2.96 17.038 7.657l0.020 0.023 39.936 45.056 64-21.76c1.115-0.172 2.402-0.271 3.712-0.271s2.597 0.098 3.853 0.288l-0.141-0.018c0 0 0.001 0 0.001 0 12.583 0 22.784 10.201 22.784 22.784 0 0.090-0.001 0.18-0.002 0.27v-0.014c0 0.019 0 0.042 0 0.064 0 2.925-0.564 5.719-1.589 8.278l0.053-0.15-35.584 157.184 131.072 30.208 67.84-296.448c0.546-2.275 0.859-4.887 0.859-7.571 0-6.686-1.942-12.919-5.292-18.165l0.081 0.136c-4.423-7.174-11.461-12.373-19.756-14.295l-0.212-0.041-375.296-88.064c-9.166 9.143-19.504 17.118-30.768 23.677l-0.72 0.387zM258.56 489.216l54.528-239.616c-21.393-8.555-39.687-20.603-55.074-35.617l0.034 0.033-40.704 179.2zM396.8-14.848c-7.683-1.936-16.507-3.055-25.589-3.072h-0.011c-0.029 0-0.064 0-0.098 0-54.774 0-100.599 38.312-112.141 89.6l-0.145 0.768c-1.886 7.84-2.967 16.841-2.967 26.095 0 54.799 37.924 100.74 88.959 113.008l0.793 0.161c7.683 1.936 16.507 3.055 25.589 3.072h0.011c0.013 0 0.028 0 0.043 0 34.2 0 64.896-15.003 85.865-38.787l0.108-0.125 2.048-2.56c16.918-20.086 27.199-46.247 27.199-74.809 0-54.816-37.865-100.788-88.866-113.187l-0.797-0.164z" />
<glyph unicode="&#xe908;" glyph-name="ben-5" d="M154.88 839.936c0-13.007-10.545-23.552-23.552-23.552v0h-1.792c-12.045 1.291-21.343 11.4-21.343 23.68s9.298 22.389 21.238 23.671l0.105 0.009h1.792c13.038-0.145 23.552-10.748 23.552-23.807 0 0 0-0.001 0-0.001v0zM355.84 863.744h-1.536c-0.74 0.082-1.597 0.128-2.465 0.128-13.149 0-23.808-10.659-23.808-23.808s10.659-23.808 23.808-23.808c0.868 0 1.726 0.046 2.57 0.137l-0.105-0.009h1.536c0.74-0.082 1.597-0.128 2.465-0.128 13.149 0 23.808 10.659 23.808 23.808s-10.659 23.808-23.808 23.808c-0.868 0-1.726-0.046-2.57-0.137l0.105 0.009zM243.712 863.744h-1.792c-0.74 0.082-1.597 0.128-2.465 0.128-13.149 0-23.808-10.659-23.808-23.808s10.659-23.808 23.808-23.808c0.868 0 1.726 0.046 2.57 0.137l-0.105-0.009h1.792c12.045 1.291 21.343 11.4 21.343 23.68s-9.298 22.389-21.238 23.671l-0.105 0.009zM327.936 451.84l-62.976 29.952c-2.993 1.476-6.516 2.339-10.24 2.339-13.027 0-23.587-10.56-23.587-23.587 0-9.302 5.385-17.347 13.208-21.186l0.139-0.062 62.72-29.952c2.804-1.458 6.122-2.312 9.64-2.312 0.211 0 0.421 0.003 0.631 0.009l-0.031-0.001c0.102-0.002 0.221-0.002 0.341-0.002 13.007 0 23.552 10.545 23.552 23.552 0 9.316-5.409 17.369-13.258 21.189l-0.14 0.061zM665.6 184.832c0-13.149-10.659-23.808-23.808-23.808v0h-616.192c-14.138 0-25.6 11.462-25.6 25.6v0 734.976c0 14.138 11.462 25.6 25.6 25.6v0h857.6c14.138 0 25.6-11.462 25.6-25.6v0-469.248c0.082-0.74 0.128-1.597 0.128-2.465 0-13.149-10.659-23.808-23.808-23.808s-23.808 10.659-23.808 23.808c0 0.868 0.046 1.726 0.137 2.57l-0.009-0.105v281.6h-814.080v-525.568h593.92c0.153 0.004 0.333 0.006 0.513 0.006 13.061 0 23.665-10.517 23.807-23.544v-0.013zM47.36 780.8h814.080v119.296h-814.080zM158.976 582.144v0s0 0 0 1.536c-0.059 0.652-0.093 1.41-0.093 2.176s0.034 1.524 0.1 2.273l-0.007-0.097c-0.051 0.537-0.081 1.161-0.081 1.792s0.029 1.255 0.086 1.871l-0.006-0.079s0 1.28 0 1.792c0.754 1.461 1.605 2.72 2.583 3.868l-0.023-0.028 7.936 4.352h3.072l212.736 102.4c2.996 1.461 6.518 2.315 10.24 2.315s7.244-0.854 10.382-2.377l-0.142 0.062 212.736-102.4c7.935-3.827 13.313-11.81 13.313-21.049 0-0.070 0-0.14-0.001-0.21v0.011-227.584c-0.034-9.35-5.511-17.412-13.426-21.187l-0.142-0.061-212.48-102.4c-2.894-1.554-6.322-2.494-9.964-2.56h-0.020c-3.749 0-7.276 0.948-10.355 2.617l0.115-0.057-212.48 102.4c-8.057 3.836-13.534 11.898-13.568 21.243v0.005zM501.76 607.744l-157.952-76.8 51.2-25.6 157.952 76.8zM206.336 368.384l165.376-79.36v175.616l-165.376 79.104zM584.448 368.384v175.36l-51.2-24.064-114.944-55.040v-175.616zM237.312 581.376l51.2-25.6 158.208 75.52-51.2 25.6zM1022.208 197.376c-3.387-8.547-11.453-14.543-20.955-14.847l-0.037-0.001-120.576-4.096 86.016-196.864c1.174-2.721 1.857-5.89 1.857-9.217 0-9.65-5.742-17.959-13.995-21.698l-0.15-0.061c-2.666-1.294-5.799-2.051-9.108-2.051-0.128 0-0.256 0.001-0.383 0.003h0.019c-0.026 0-0.056 0-0.086 0-9.678 0-17.993 5.838-21.615 14.184l-0.059 0.152-86.528 197.888-89.088-82.176c-4.169-3.964-9.82-6.403-16.042-6.403-3.463 0-6.749 0.756-9.703 2.111l0.145-0.060c-8.405 3.711-14.195 11.914-14.336 21.486v384.018c0.081 9.745 6.005 18.087 14.437 21.701l0.155 0.059c2.618 1.064 5.654 1.681 8.835 1.681 6.521 0 12.436-2.594 16.77-6.806l-0.006 0.005 269.312-273.664c4.245-4.142 6.878-9.92 6.878-16.313 0-3.167-0.646-6.184-1.814-8.924l0.056 0.149zM945.408 227.84l-191.232 193.024v-271.36l74.752 68.096c4.1 3.651 9.422 6.010 15.283 6.396l0.077 0.004z" />
<glyph unicode="&#xe909;" glyph-name="ben-6" d="M1021.696 532.736c-2.741 5.726-7.534 10.102-13.402 12.235l-0.166 0.053-86.528 30.976v193.536c0.001 0.076 0.001 0.167 0.001 0.257 0 13.059-10.515 23.663-23.54 23.807h-723.982c-0.231 0.008-0.502 0.012-0.774 0.012-8.118 0-15.297-4.020-19.655-10.177l-0.050-0.075-149.248-219.392c-2.746-3.802-4.392-8.557-4.392-13.696s1.646-9.894 4.439-13.765l-0.048 0.069 149.248-219.136c4.364-6.162 11.435-10.157 19.443-10.24h29.965l587.008-199.936c8.522-3.104 18.359-4.9 28.616-4.9 37.622 0 69.603 24.153 81.281 57.8l0.182 0.604 123.904 353.536c0.561 1.937 0.884 4.162 0.884 6.463 0 4.405-1.183 8.533-3.25 12.084l0.062-0.115zM52.48 550.4l133.888 195.328h688.384v-350.976c0-0.016 0-0.035 0-0.054 0-10.873-4.402-20.718-11.521-27.851l0.001 0.001c-6.916-7.261-16.657-11.776-27.453-11.776-0.068 0-0.137 0-0.205 0.001h-649.206zM855.552 176.896c-5.265-15.672-19.821-26.761-36.966-26.761-5.124 0-10.016 0.99-14.496 2.79l0.262-0.093-453.632 153.6h483.84c0.135-0.001 0.295-0.001 0.454-0.001 23.718 0 45.146 9.804 60.453 25.58l0.020 0.021c15.815 15.874 25.595 37.77 25.6 61.951v130.817l48.384-17.408zM274.688 456.192h1.536c51.298 1.305 92.385 43.2 92.385 94.691 0 25.837-10.345 49.258-27.119 66.347l0.014-0.015c-16.263 16.893-39.008 27.447-64.218 27.648h-1.574c-51.166-0.575-92.422-42.187-92.422-93.434 0-0.362 0.002-0.723 0.006-1.084v0.055c0.102-25.655 10.443-48.875 27.146-65.802l-0.010 0.010c16.205-17.108 38.922-27.907 64.163-28.415l0.093-0.001zM274.688 596.736v0c0.062 0 0.134 0 0.207 0 12.49 0 23.765-5.2 31.778-13.553l0.015-0.015c8.812-8.246 14.429-19.813 14.846-32.693l0.002-0.075c0.001-0.081 0.001-0.178 0.001-0.274 0-24.858-19.793-45.093-44.479-45.805l-0.066-0.001h-1.28c-0.062 0-0.134 0-0.207 0-12.49 0-23.765 5.2-31.778 13.553l-0.015 0.015c-8.21 8.374-13.285 19.848-13.312 32.507v0.005c-0.001 0.084-0.001 0.183-0.001 0.282 0 24.909 19.765 45.203 44.467 46.052l0.078 0.002zM482.304 440.064c-4.022 4.502-6.481 10.476-6.481 17.024s2.458 12.522 6.503 17.049l-0.022-0.025 199.424 203.008c4.243 4.395 10.187 7.124 16.768 7.124s12.525-2.729 16.761-7.117l0.007-0.007c4.284-4.342 6.929-10.31 6.929-16.896s-2.646-12.554-6.932-16.899l0.003 0.003-199.68-203.264c-4.257-4.264-10.139-6.904-16.639-6.912h-0.001c-6.413 0.050-12.2 2.684-16.382 6.91l-0.002 0.002zM493.056 638.72c0.288 19.148 15.879 34.56 35.068 34.56 19.37 0 35.072-15.702 35.072-35.072 0-19.368-15.7-35.070-35.068-35.072v0c-19.29 0.288-34.817 15.993-34.817 35.324 0 0.091 0 0.183 0.001 0.274v-0.014zM697.856 480c-0.43-19.037-15.964-34.304-35.064-34.304-19.37 0-35.072 15.702-35.072 35.072 0 19.367 15.697 35.067 35.063 35.072v0c0.077 0.001 0.168 0.001 0.26 0.001 19.511 0 35.328-15.817 35.328-35.328 0-0.18-0.001-0.36-0.004-0.54v0.027z" />
<glyph unicode="&#xe90a;" glyph-name="ben-7" d="M884.992 531.712c-4.356 4.36-10.375 7.056-17.024 7.056s-12.668-2.697-17.024-7.056v0l-113.664-113.664-184.32 183.552c0.182 1.092 0.285 2.351 0.285 3.634 0 6.364-2.552 12.132-6.688 16.337l0.003-0.003c-4.356 4.36-10.375 7.056-17.024 7.056s-12.668-2.697-17.024-7.056v0l-77.312-73.216c-4.57-4.304-10.744-6.949-17.536-6.949s-12.966 2.645-17.549 6.961l0.013-0.012-9.728 9.728c-4.304 4.57-6.949 10.744-6.949 17.536s2.645 12.966 6.961 17.549l-0.012-0.013 65.536 65.536 4.352 3.328c1.117 1.211 2.131 2.551 3.008 3.984l0.064 0.112 13.312 13.312c4.516 4.078 10.531 6.573 17.127 6.573 7.118 0 13.558-2.905 18.198-7.595l12.802-12.802c14.404-15.573 34.419-25.774 56.813-27.376l0.275-0.016c0.367-0.006 0.8-0.009 1.233-0.009 24.426 0 46.362 10.657 61.414 27.574l0.073 0.083 62.464 63.744c4.357 4.357 7.052 10.376 7.052 17.024 0 13.297-10.779 24.076-24.076 24.076-6.648 0-12.667-2.695-17.024-7.052v0l-63.744-62.72c-6.282-7.474-15.269-12.497-25.435-13.554l-0.165-0.014c-9.243 0.968-17.35 5.198-23.278 11.501l-0.018 0.019-14.592 14.592c-13.19 12.912-31.265 20.879-51.2 20.879s-38.010-7.967-51.213-20.892l0.013 0.013-45.824 44.288c-4.356 4.36-10.375 7.056-17.024 7.056s-12.668-2.697-17.024-7.056v0c-4.022-4.502-6.481-10.476-6.481-17.024s2.458-12.522 6.503-17.049l-0.022 0.025 44.288-45.312-51.2-51.2c-12.852-13.217-20.778-31.283-20.778-51.2s7.925-37.983 20.794-51.217l-0.017 0.017 9.728-9.472c12.996-13.123 31.018-21.248 50.938-21.248 0.092 0 0.184 0 0.276 0.001h-0.014c0.105-0.001 0.23-0.001 0.354-0.001 19.798 0 37.747 7.913 50.858 20.749l-0.013-0.012 53.76 51.2 237.056-237.056c1.995-2.142 3.219-5.024 3.219-8.192s-1.225-6.050-3.226-8.199l-6.137-6.137c-2.046-1.89-4.792-3.050-7.808-3.050s-5.762 1.159-7.816 3.057l0.008-0.007-54.528 54.784c-4.484 5.163-11.060 8.409-18.393 8.409-13.432 0-24.32-10.888-24.32-24.32 0-7.333 3.246-13.909 8.379-18.368l0.030-0.025 53.504-53.248 1.28-1.536c1.89-2.046 3.050-4.792 3.050-7.808s-1.159-5.762-3.057-7.816l0.007 0.008-6.144-6.144c-2.068-1.838-4.807-2.961-7.808-2.961s-5.74 1.123-7.82 2.971l0.012-0.010-47.36 44.032c-4.357 4.357-10.376 7.052-17.024 7.052-13.297 0-24.076-10.779-24.076-24.076 0-6.648 2.695-12.667 7.052-17.024v0l44.288-42.752 1.536-1.792c1.595-1.961 2.561-4.489 2.561-7.243 0-0.064-0.001-0.127-0.002-0.191v0.010c0.004-0.112 0.007-0.243 0.007-0.374 0-2.991-1.282-5.682-3.327-7.555l-0.008-0.007-5.632-8.448c-2.028-2.042-4.832-3.312-7.933-3.328h-0.003c-0.012 0-0.026 0-0.040 0-1.774 0-3.438 0.475-4.87 1.305l0.047-0.025-3.072 3.072-42.24 41.216c-4.356 4.36-10.375 7.056-17.024 7.056s-12.668-2.697-17.024-7.056v0c-1.207-1.29-2.305-2.713-3.26-4.236l-0.068-0.116c-3.019 8.717-7.748 16.168-13.826 22.274l-6.142 6.142c-4.243 4.372-9.244 7.98-14.794 10.619l-0.31 0.133c2.022 5.396 3.234 11.63 3.328 18.135v0.041c-0.024 16.476-6.668 31.395-17.413 42.245l-6.395 6.395c-4.262 4.113-9.153 7.614-14.506 10.338l-0.342 0.158c1.842 5.486 2.957 11.809 3.071 18.376l0.001 0.056c0.017 0.526 0.026 1.144 0.026 1.764 0 15.905-6.252 30.349-16.432 41.010l0.022-0.023-6.144 6.144c-8.851 8.813-20.494 14.828-33.486 16.606l-0.306 0.034c-1.868 13.203-7.874 24.748-16.641 33.537l0.001-0.001-6.144 6.4c-10.788 10.755-25.673 17.405-42.112 17.405s-31.324-6.65-42.113-17.407l0.001 0.001-40.96-40.192-99.328 99.328c-4.357 4.357-10.376 7.052-17.024 7.052-13.297 0-24.076-10.779-24.076-24.076 0-6.648 2.695-12.667 7.052-17.024v0l99.328-98.56-19.2-19.456c-10.817-10.759-17.511-25.654-17.511-42.112s6.694-31.353 17.509-42.109l6.147-6.147c8.851-8.813 20.494-14.828 33.486-16.606l0.306-0.034c1.749-13.231 7.78-24.808 16.633-33.529l0.007-0.007 6.144-6.4c8.788-8.766 20.333-14.772 33.223-16.603l0.313-0.037c1.771-13.517 7.894-25.354 16.893-34.301l6.147-6.147c8.851-8.813 20.494-14.828 33.486-16.606l0.306-0.034c1.718-13.276 7.651-24.924 16.391-33.799l-0.007 0.007 6.4-6.144c10.788-10.755 25.673-17.405 42.112-17.405s31.324 6.65 42.113 17.407l-0.001-0.001 20.48 20.736 34.304-34.304c10.788-10.755 25.673-17.405 42.112-17.405s31.324 6.65 42.113 17.407l6.143 6.143c8.726 8.663 14.787 20.001 16.85 32.68l0.046 0.344c12.924 1.998 24.189 7.982 32.764 16.636l6.148 6.148c8.766 8.788 14.772 20.333 16.603 33.223l0.037 0.313c13.203 1.868 24.748 7.874 33.537 16.641l6.143 6.143c8.766 8.788 14.772 20.333 16.603 33.223l0.037 0.313c13.203 1.868 24.748 7.874 33.537 16.641l6.143 6.143c10.77 10.829 17.427 25.757 17.427 42.24s-6.657 31.411-17.43 42.243l-21.757 21.757 113.664 113.664c4.284 4.342 6.929 10.31 6.929 16.896 0 6.713-2.749 12.784-7.182 17.149l-0.003 0.003zM253.696 342.528l93.44 93.44c1.962 2.057 4.724 3.336 7.785 3.336 0.143 0 0.286-0.003 0.428-0.008l-0.020 0.001c0.112 0.004 0.243 0.007 0.374 0.007 2.991 0 5.682-1.282 7.555-3.327l0.007-0.008 6.4-6.144c1.904-2.013 3.074-4.736 3.074-7.733 0-0.071-0.001-0.143-0.002-0.214v0.011c0.005-0.121 0.008-0.264 0.008-0.407 0-3.061-1.279-5.823-3.331-7.781l-0.004-0.004-93.184-93.696c-2.115-2.056-5.005-3.325-8.191-3.328h-0.001c-3.104 0.016-5.908 1.286-7.935 3.327l-0.001 0.001-6.4 6.144c-2.112 2.089-3.421 4.988-3.421 8.192s1.308 6.103 3.419 8.191l0.001 0.001zM307.2 278.016c0.058 3.178 1.314 6.051 3.334 8.198l93.434 93.434c2.028 2.042 4.832 3.312 7.933 3.328h0.003c3.178-0.058 6.051-1.314 8.198-3.334l-0.006 0.006 6.144-6.4c2.042-2.028 3.312-4.832 3.328-7.933v-0.003c-0.058-3.178-1.314-6.051-3.334-8.198l-93.434-93.434c-2.028-2.042-4.832-3.312-7.933-3.328h-0.003c-3.187 0.003-6.077 1.272-8.195 3.331l0.003-0.003-6.4 5.12c-1.954 2.023-3.159 4.782-3.159 7.822 0 0.491 0.031 0.976 0.093 1.45l-0.006-0.056zM366.848 229.632l72.704 72.704c2.085 1.907 4.874 3.076 7.936 3.076s5.851-1.168 7.945-3.084l-0.009 0.008 6.4-6.4c2.042-2.028 3.312-4.832 3.328-7.933v-0.003c-0.003-3.187-1.272-6.077-3.331-8.195l0.003 0.003-72.704-72.448c-2.141-2.014-5.014-3.27-8.18-3.328h-0.012c-3.104 0.016-5.908 1.286-7.935 3.327l-0.001 0.001-6.4 6.144c-2.036 2.076-3.293 4.923-3.293 8.064s1.257 5.988 3.295 8.066l-0.002-0.002zM445.696 150.784c-2.115-2.056-5.005-3.325-8.191-3.328h-0.001c-3.104 0.016-5.908 1.286-7.935 3.327l-0.001 0.001-6.144 6.4c-2.053 1.879-3.335 4.571-3.335 7.562 0 0.132 0.002 0.263 0.007 0.393l-0.001-0.019c-0.003 0.090-0.004 0.196-0.004 0.302 0 3.093 1.276 5.888 3.33 7.888l51.202 51.202c2.115 2.056 5.005 3.325 8.191 3.328h0.001c3.104-0.016 5.908-1.286 7.935-3.327l6.145-6.145c2.036-2.076 3.293-4.923 3.293-8.064s-1.257-5.988-3.295-8.066l0.002 0.002zM590.848 143.616l-6.144-6.4c-2.028-2.042-4.832-3.312-7.933-3.328h-0.003c-3.187 0.003-6.077 1.272-8.195 3.331l-34.557 34.557c7.176 8.105 12.122 18.338 13.786 29.639l0.038 0.313 41.728-41.984 2.816-2.56c0.982-1.615 1.564-3.567 1.564-5.655 0-3.105-1.285-5.909-3.353-7.91l-0.003-0.003zM47.616 297.216c-0.924-0.176-1.986-0.277-3.072-0.277s-2.148 0.101-3.178 0.294l0.106-0.017c-0.009 0-0.019 0-0.030 0-11.106 0-20.454 7.523-23.228 17.751l-0.039 0.169c-10.989 39.591-17.305 85.052-17.305 131.989 0 282.77 229.23 512 512 512 163.024 0 308.253-76.192 402.019-194.909l0.822-1.080 19.456 83.968c2.693 10.566 12.125 18.255 23.352 18.255 13.29 0 24.064-10.774 24.064-24.064 0-1.842-0.207-3.636-0.599-5.36l0.031 0.161-31.488-136.448c-3.010-10.526-12.322-18.188-23.497-18.686l-0.055-0.002c-0.808-0.119-1.74-0.187-2.688-0.187s-1.88 0.068-2.792 0.199l0.104-0.012-136.448 32.256c-10.566 2.693-18.255 12.125-18.255 23.352 0 13.29 10.774 24.064 24.064 24.064 1.842 0 3.636-0.207 5.36-0.599l-0.161 0.031 74.24-16.896c-85.71 103.681-214.345 169.251-358.295 169.251-256.189 0-463.872-207.683-463.872-463.872 0-42.992 5.849-84.619 16.794-124.127l-0.771 3.26c0.558-1.921 0.879-4.128 0.879-6.409 0-11.004-7.466-20.265-17.608-22.993l-0.167-0.038zM783.36 12.8c-76.813-48.493-170.28-77.269-270.469-77.269-163.738 0-309.524 76.861-403.248 196.471l-0.844 1.118-19.456-83.968c-2.432-10.767-11.916-18.688-23.251-18.688-0.016 0-0.032 0-0.048 0h0.002c-0.846-0.115-1.823-0.181-2.816-0.181s-1.97 0.066-2.928 0.193l0.112-0.012c-10.718 2.583-18.558 12.089-18.558 23.426 0 1.952 0.232 3.85 0.671 5.667l-0.033-0.164 31.488 136.448c1.644 6.346 5.491 11.609 10.658 15.045l0.094 0.059c3.857 2.453 8.557 3.909 13.597 3.909 1.436 0 2.845-0.118 4.216-0.346l-0.149 0.020 136.448-31.744c10.871-2.467 18.865-12.048 18.865-23.496 0-13.29-10.774-24.064-24.064-24.064-2.063 0-4.065 0.26-5.976 0.748l0.167-0.036-74.24 16.896c85.717-104.226 214.686-170.182 359.059-170.182 256.189 0 463.872 207.683 463.872 463.872 0 45.013-6.411 88.529-18.371 129.683l0.816-3.277c-0.573 1.956-0.902 4.204-0.902 6.528 0 13.294 10.777 24.070 24.070 24.070 10.969 0 20.225-7.338 23.126-17.372l0.042-0.17c11.865-41.203 18.688-88.53 18.688-137.451 0-182.665-95.134-343.111-238.558-434.493l-2.082-1.24z" />
<glyph unicode="&#xe90b;" glyph-name="bin" d="M896 704h-213.333v71.253c-2.093 55.375-47.489 99.472-103.184 99.472-1.225 0-2.444-0.021-3.659-0.064l0.176 0.005h-128c-1.038 0.037-2.258 0.059-3.483 0.059-55.695 0-101.091-44.097-103.178-99.282l-0.006-0.19v-71.253h-213.333c-23.564 0-42.667-19.103-42.667-42.667s19.103-42.667 42.667-42.667v0h42.667v-469.333c0-70.692 57.308-128 128-128v0h426.667c70.692 0 128 57.308 128 128v0 469.333h42.667c23.564 0 42.667 19.103 42.667 42.667s-19.103 42.667-42.667 42.667v0zM426.667 775.253c0 6.827 8.96 14.080 21.333 14.080h128c12.373 0 21.333-7.253 21.333-14.080v-71.253h-170.667zM768 149.333c0-23.564-19.103-42.667-42.667-42.667v0h-426.667c-23.564 0-42.667 19.103-42.667 42.667v0 469.333h512zM384 234.667c23.564 0 42.667 19.103 42.667 42.667v0 170.667c0 23.564-19.103 42.667-42.667 42.667s-42.667-19.103-42.667-42.667v0-170.667c0-23.564 19.103-42.667 42.667-42.667v0zM640 234.667c23.564 0 42.667 19.103 42.667 42.667v0 170.667c0 23.564-19.103 42.667-42.667 42.667s-42.667-19.103-42.667-42.667v0-170.667c0-23.564 19.103-42.667 42.667-42.667v0z" />
<glyph unicode="&#xe90c;" glyph-name="burger" d="M170.667 704h686.933c21.656-2.24 38.401-20.391 38.401-42.453 0-0.075 0-0.15-0.001-0.225v0.012-4.267c0-0.016 0-0.035 0-0.053 0-22.814-17.905-41.446-40.43-42.609l-0.104-0.004h-684.8c-23.564 0-42.667 19.103-42.667 42.667v0 4.267c0 23.564 19.103 42.667 42.667 42.667v0zM857.6 490.667h-686.933c-23.564 0-42.667-19.103-42.667-42.667v0-4.267c2.24-21.656 20.391-38.401 42.453-38.401 0.075 0 0.15 0 0.225 0.001h686.921c21.927 1.105 39.429 18.606 40.529 40.432l0.004 0.102v2.133c0 23.564-19.103 42.667-42.667 42.667v0zM857.6 277.333h-686.933c-23.564 0-42.667-19.103-42.667-42.667v0-4.267c2.24-21.656 20.391-38.401 42.453-38.401 0.075 0 0.15 0 0.225 0.001h686.921c21.927 1.105 39.429 18.606 40.529 40.432l0.004 0.102v2.133c0 23.564-19.103 42.667-42.667 42.667v0z" />
<glyph unicode="&#xe90d;" glyph-name="cart-add" d="M819.2 448c-26.917 0.555-51.885 8.422-73.14 21.686l0.606-0.353-55.467-106.667h-324.267l-72.533 256h315.733c-4.626 12.583-7.683 27.134-8.516 42.278l-0.017 0.389c0.85 15.533 3.908 30.083 8.868 43.72l-0.335-1.053h-341.333l-21.333 98.133c-3.317 8.951-9.267 16.279-16.901 21.232l-0.166 0.101c-7.117 5.152-15.968 8.318-25.548 8.532l-0.052 0.001h-85.333c-0.31 0.009-0.676 0.014-1.042 0.014-11.421 0-21.69-4.931-28.795-12.781l-0.030-0.033c-7.883-7.134-12.814-17.403-12.814-28.824 0-0.366 0.005-0.732 0.015-1.096l-0.001 0.054c-0.009-0.31-0.014-0.676-0.014-1.042 0-11.421 4.931-21.69 12.781-28.795l0.033-0.030c7.134-7.883 17.403-12.814 28.824-12.814 0.366 0 0.732 0.005 1.096 0.015l-0.054-0.001h51.2l119.467-439.467c3.317-8.951 9.267-16.279 16.901-21.232l0.166-0.101c7.117-5.152 15.968-8.318 25.548-8.532l0.052-0.001h384c8.533 0 17.067 0 21.333 8.533 7.652 3.423 13.644 9.415 16.982 16.856l0.084 0.211 72.533 145.067zM311.467 64c35.346 0 64 28.654 64 64s-28.654 64-64 64v0c-35.346 0-64-28.654-64-64s28.654-64 64-64v0zM802.133 128c0-35.346-28.654-64-64-64s-64 28.654-64 64c0 35.346 28.654 64 64 64v0c34.968-0.925 63.075-29.032 63.998-63.913l0.002-0.087zM947.2 661.333c-1.688-22.853-19.814-40.979-42.515-42.658l-0.152-0.009h-42.667v-42.667c0-23.564-19.103-42.667-42.667-42.667s-42.667 19.103-42.667 42.667v0 42.667h-42.667c-22.853 1.688-40.979 19.814-42.658 42.515l-0.009 0.152c1.688 22.853 19.814 40.979 42.515 42.658l0.152 0.009h42.667v42.667c0 23.564 19.103 42.667 42.667 42.667s42.667-19.103 42.667-42.667v0-42.667h42.667c22.853-1.688 40.979-19.814 42.658-42.515l0.009-0.152z" />
<glyph unicode="&#xe90e;" glyph-name="cart" d="M913.067 661.333c-7.55 12.791-17.929 23.17-30.324 30.503l-0.396 0.217c-12.201 7.359-26.9 11.778-42.619 11.946h-545.328l-24.747 96.427c-2.074 9.253-6.919 17.151-13.604 22.997l-0.050 0.043c-7.073 5.403-16.039 8.657-25.764 8.657-1.143 0-2.276-0.045-3.397-0.133l0.148 0.009h-85.333c-0.073 0-0.16 0.001-0.247 0.001-11.721 0-22.338-4.726-30.049-12.377l0.003 0.003c-7.648-7.709-12.374-18.326-12.374-30.047 0-0.087 0-0.173 0.001-0.26v0.013c0-0.073-0.001-0.16-0.001-0.247 0-11.721 4.726-22.338 12.377-30.049l-0.003 0.003c7.709-7.648 18.326-12.374 30.047-12.374 0.087 0 0.173 0 0.26 0.001h52.894l117.76-437.76c2.652-9.48 8.226-17.407 15.674-22.96l0.113-0.080c7.047-5.339 15.96-8.552 25.625-8.552 0.441 0 0.881 0.007 1.32 0.020l-0.064-0.002h384c8.223 0.058 15.88 2.433 22.365 6.504l-0.178-0.104c6.74 4.165 12.116 9.951 15.675 16.829l0.112 0.238 139.947 279.893c5.246 10.747 8.313 23.384 8.313 36.737 0 2.086-0.075 4.155-0.222 6.204l0.016-0.275c-1.010 14.148-5.321 27.103-12.16 38.351l0.213-0.378zM712.533 362.667h-325.12l-69.547 256h522.667zM269.653 128c0 35.346 28.654 64 64 64s64-28.654 64-64c0-35.346-28.654-64-64-64v0c-35.346 0-64 28.654-64 64v0zM824.32 128c0-35.346-28.654-64-64-64s-64 28.654-64 64c0 35.346 28.654 64 64 64v0c35.346 0 64-28.654 64-64v0z" />
<glyph unicode="&#xe90f;" glyph-name="category-1" d="M996.608 565.76v145.92h-969.216v-145.92h-27.392v-351.744h37.376v-29.696h37.12v29.696h875.008v-29.696h37.12v29.696h37.376v351.744zM685.824 674.56h273.664v-108.8h-114.688v-185.6h-158.976zM375.040 674.56h273.92v-294.4h-273.92zM64.512 674.56h273.664v-294.4h-157.696v185.6h-115.968zM986.112 251.136h-948.992v277.504h106.496v-185.6h736.768v185.6h106.496z" />
<glyph unicode="&#xe910;" glyph-name="category-2" d="M128 868.352v-810.752h33.792v-29.952h30.464v29.952h640v-29.952h30.464v29.952h33.28v810.752zM865.28 88.064h-706.816v230.4h706.816zM865.28 348.16h-706.816v230.4h706.816zM865.28 608.256h-706.816v230.4h706.816zM575.232 707.584h-126.464v30.72h126.464zM575.232 447.744h-126.464v30.464h126.464zM575.232 187.648h-126.464v29.952h126.464z" />
<glyph unicode="&#xe911;" glyph-name="category-3" d="M722.432 588.032h-153.6v39.168h153.6zM265.472 550.4h-40.704v-92.672h40.704zM1024 729.6v-40.448h-55.552v-522.752h-40.448v317.696h-574.464v-204.8h-257.536v-112.896h-40.448v523.264h-55.552v39.936zM313.088 689.664h-217.088v-369.664h217.088zM927.488 689.664h-573.952v-164.864h574.464z" />
<glyph unicode="&#xe912;" glyph-name="category-4" d="M964.096 151.552h-904.192v38.4h58.624v72.448h-58.624v38.4h58.624v72.448h-58.624v38.4h58.624v72.704h-58.624v38.4h58.624v72.448h-58.624v38.4h58.624v72.448h-58.624v38.4h904.192v-38.4h-58.624v-72.448h58.624v-38.4h-58.624v-72.448h58.624v-38.4h-58.624v-72.704h58.624v-38.4h-58.624v-72.448h58.624v-38.4h-58.624v-72.448h58.624zM156.928 189.952h710.144v516.096h-710.144zM728.576 245.76h-433.408v19.2c0 0 0 0 0 0.001 0 34.973-28.279 63.342-63.218 63.487h-19.214v239.104h19.2c34.953 0.145 63.232 28.514 63.232 63.487 0 0 0 0 0 0v0 19.2h433.408v-19.2c0.145-35.005 28.483-63.343 63.474-63.488h19.214v-239.104h-19.2c-35.005-0.145-63.343-28.483-63.488-63.474v-0.014zM332.8 284.16h358.4c8.256 40.78 39.86 72.384 79.982 80.529l0.658 0.111v166.4c-40.78 8.256-72.384 39.86-80.529 79.982l-0.111 0.658h-358.4c-8.256-40.78-39.86-72.384-79.982-80.529l-0.658-0.111v-166.4c40.78-8.256 72.384-39.86 80.529-79.982l0.111-0.658z" />
<glyph unicode="&#xe913;" glyph-name="category-5" d="M545.28 170.752h-66.816v313.6h66.816zM243.456 523.264v201.984h537.6v-201.984zM819.2 484.352v279.808h-614.4v-279.808h235.008v-313.6h-93.44v-38.912h331.264v38.912h-93.184v313.6z" />
<glyph unicode="&#xe914;" glyph-name="category-6" d="M652.288 91.904h-281.6l-41.216 279.296h-38.656v122.112h203.008c0 5.12 0 9.984 0 14.848v0c-49.438 2.296-94.304 20.151-130.254 48.739l0.462-0.355c-29.37 29.177-47.548 69.588-47.548 114.245 0 11.853 1.281 23.407 3.711 34.531l-0.195-1.064 3.328 13.568h14.080c2.802 0.141 6.084 0.221 9.384 0.221 51.439 0 98.318-19.526 133.629-51.57l-0.166 0.148c8.796-8.677 16.504-18.421 22.923-29.031l0.373-0.665c3.72 14.642 8.627 27.421 14.819 39.43l-0.483-1.030c-18.118 6.217-32.913 18.194-42.555 33.707l-0.197 0.341c-8.779 16.47-13.934 36.020-13.934 56.773 0 7.073 0.599 14.006 1.749 20.751l-0.102-0.725 3.072 20.224 17.664-2.048c28.688-2.936 53.33-18.112 68.919-40.148l0.201-0.3c4.337-7.378 7.628-15.962 9.39-25.090l0.082-0.51c10.676 10.792 21.947 20.927 33.786 30.379l0.774 0.597 24.064-29.952c-35.698-25.068-62.913-60.046-77.866-100.931l-0.47-1.469c10.127 8.939 22.42 15.672 35.98 19.312l0.628 0.144c6.306 1.133 13.565 1.781 20.975 1.781 25.45 0 49.115-7.641 68.826-20.755l-0.457 0.286 12.032-8.192-4.608-13.568c-11.142-29.749-35.437-52.276-65.612-60.762l-0.692-0.166c-8.147-1.728-17.507-2.718-27.098-2.718-17.886 0-34.969 3.441-50.621 9.698l0.92-0.324c0-16.384 0-34.304 0-54.016 0-4.864 0-9.984 0-15.104h200.96v-121.344h-39.168zM404.736 130.304h214.528l36.352 240.896h-287.232zM327.936 408.576h366.848v46.336h-365.568zM353.536 681.728c-0.345-3.399-0.541-7.345-0.541-11.338 0-33.115 13.522-63.073 35.346-84.651l0.011-0.011c28.273-21.583 63.532-35.374 101.895-37.608l0.505-0.024c-2.145 36.365-16.632 68.984-39.288 94.087l0.12-0.135c-25.616 23.111-59.185 37.847-96.15 39.666l-0.362 0.014zM553.728 595.2c8.071-2.618 17.358-4.127 26.997-4.127 6.393 0 12.63 0.664 18.647 1.926l-0.588-0.103c13.003 3.423 23.831 11.172 31.115 21.584l0.117 0.176c-8.797 4.039-19.085 6.394-29.923 6.394-4.809 0-9.509-0.464-14.059-1.348l0.462 0.075c-13.12-4.627-23.873-13.229-31.089-24.34l-0.143-0.236zM499.712 759.808c0.654-10.426 3.611-20.033 8.365-28.495l-0.173 0.335c4.181-7.031 10.324-12.515 17.673-15.774l0.247-0.098c0.081 1.079 0.127 2.338 0.127 3.607 0 9.003-2.324 17.464-6.405 24.815l0.133-0.262c-4.907 7.106-11.708 12.588-19.676 15.769l-0.292 0.103z" />
<glyph unicode="&#xe915;" glyph-name="category-7" d="M860.672 143.616h-697.344v494.592h180.992v114.176h335.36v-114.176h180.992zM201.728 182.016h620.544v189.184h-620.544zM201.728 410.112h620.544v189.696h-620.544zM384 638.208h258.56v76.8h-258.56zM573.952 456.448h-115.712v38.4h114.432z" />
<glyph unicode="&#xe916;" glyph-name="category-8" d="M858.368 144.896h-39.168v51.2h-614.4v-51.2h-39.168v51.2h-55.808v555.008h38.4v-76.8h727.552v76.8h38.4v-555.264h-55.808zM148.224 234.24h727.552v52.992h-727.552zM760.832 325.632h114.944v310.272h-114.944zM607.232 325.632h114.688v310.272h-114.176zM453.632 325.632h114.688v310.272h-113.664zM300.032 325.632h114.688v310.272h-113.152zM146.432 325.632h114.944v310.272h-113.152z" />
<glyph unicode="&#xe917;" glyph-name="category-9" d="M93.184 889.088v-864.256h39.68v-17.92h32v17.92h694.272v-17.92h32v17.92h39.68v864.256zM495.872 56.832h-370.688v800.768h370.688zM898.816 56.832h-370.688v800.768h370.688zM429.056 511.488h31.744v-109.056h-31.744zM562.944 511.488h32v-109.056h-31.744z" />
<glyph unicode="&#xe918;" glyph-name="category-10" d="M886.016 190.464h-38.4v34.048h-671.232v-34.048h-38.4v34.048h-64v181.248h64v93.44h52.48v225.536h643.072v-225.536h51.2v-94.72h64v-181.248h-64zM886.016 262.912h25.6v104.448h-799.232v-104.448zM176.384 405.76h671.232v56.32h-671.232zM733.184 499.2h61.952v187.136h-566.272v-187.136h61.952v99.84h186.88v-99.84h68.608v99.84h186.88zM584.704 499.2h110.080v61.44h-110.080zM328.704 499.2h110.080v61.44h-110.080z" />
<glyph unicode="&#xe919;" glyph-name="category-11" d="M909.824 509.184v0h-726.016v204.8h76.8v-4.096c-21.023-7.258-35.855-26.878-35.855-49.961 0-0.436 0.005-0.87 0.016-1.303l-0.001 0.064v-10.496h34.816v10.496c1.13 9.339 9.008 16.504 18.56 16.504s17.43-7.166 18.551-16.415l0.009-0.090v-10.496h34.816v10.496c0.009 0.369 0.015 0.803 0.015 1.239 0 23.084-14.831 42.703-35.484 49.85l-0.37 0.112v40.192h-146.944v-240.384h-66.56v-36.096h37.12l43.776-307.2h30.464v-22.016h36.864v22.016h565.76v-22.016h35.584v22.016h30.464l43.776 307.2h37.12v35.584zM830.208 203.52h-636.416l-38.656 270.080h713.728z" />
<glyph unicode="&#xe91a;" glyph-name="category-12" d="M676.096 112.384h-38.4v460.8h-243.456v38.4h525.568v-38.4h-243.712zM528.128 112.384h-38.4v288.256h-294.912v-288.256h-38.4v307.2l-50.944 361.216 38.144 5.376 48.64-347.136h335.872z" />
<glyph unicode="&#xe91b;" glyph-name="category-13" d="M897.792 65.536h-38.4v53.504h-694.784v-53.504h-38.4v53.504h-36.864v550.144h99.072v60.416c0 56.554 45.846 102.4 102.4 102.4s102.4-45.846 102.4-102.4v0-19.2h-38.4v19.2c0 35.346-28.654 64-64 64s-64-28.654-64-64v0-59.392h707.84v-551.168h-36.864zM531.2 157.44h364.8v337.152h-364.8zM164.608 157.44h328.192v473.344h-364.8v-473.088zM531.2 532.992h364.8v97.792h-364.8zM855.808 204.288h-284.16v173.568h284.16zM610.048 243.2h207.36v96.256h-207.36zM855.808 417.536h-284.16v38.4h284.16zM716.8 562.688h-58.624v38.912h58.624zM630.016 562.688h-58.368v38.912h58.368zM214.784 562.688h-58.368v38.912h58.368z" />
<glyph unicode="&#xe91c;" glyph-name="category-14" d="M662.528 74.24v734.72h114.944v-187.392h83.712v-19.968c0-417.536-163.584-509.44-170.496-512zM700.928 583.168v-435.2c42.496 45.824 118.272 164.864 121.856 435.2zM700.928 621.568h38.144v148.992h-38.144zM574.464 87.040h-411.648v534.528h132.864v187.392h145.92v-187.392h132.864zM201.216 125.44h334.848v457.728h-334.848zM334.080 621.568h69.12v148.992h-69.12z" />
<glyph unicode="&#xe91d;" glyph-name="category-15" d="M122.88 140.8h-38.4v287.232c-38.4 16.384-65.536 80.896-65.536 162.56 0 94.976 36.352 166.656 84.736 166.656s84.736-71.68 84.736-166.656c0-81.664-27.136-146.176-65.536-162.56zM103.68 718.848c-18.944 0-46.336-49.92-46.336-128s27.392-128 46.336-128 46.336 49.92 46.336 128-27.392 128-46.336 128zM515.328 143.36c-0.228-0.001-0.498-0.001-0.768-0.001-168.248 0-304.64 136.392-304.64 304.64s136.392 304.64 304.64 304.64c168.248 0 304.64-136.392 304.64-304.639v0c-0.145-167.92-136.013-304.058-303.816-304.64h-0.056zM515.328 714.24c-147.040 0-266.24-119.2-266.24-266.24s119.2-266.24 266.24-266.24c147.040 0 266.24 119.2 266.24 266.24v0c-0.146 146.982-119.258 266.094-266.226 266.24h-0.014zM937.216 162.56h-38.4v370.176h-68.096v222.464h39.68v-185.088h29.696v185.088h38.4v-185.088h29.44v185.088h38.4v-223.488h-69.12z" />
<glyph unicode="&#xe91e;" glyph-name="category-16" d="M694.528 106.24h-38.4v98.304h-70.4v-98.304h-38.4v98.304h-70.656v-98.304h-38.4v98.304h-70.4v-98.304h-38.4v98.304h-60.928v60.928h-98.304v38.4h98.304v70.4h-98.304v38.4h98.304v70.656h-98.304v38.4h98.304v70.4h-98.304v38.4h98.304v60.928h60.928v98.304h38.4v-98.304h70.4v98.304h38.4v-98.304h70.656v98.304h38.4v-98.304h70.4v98.304h38.4v-98.304h60.928v-60.928h98.304v-38.4h-98.304v-70.4h98.304v-38.4h-98.304v-70.656h98.304v-38.4h-98.304v-70.4h98.304v-38.4h-98.304v-60.928h-60.928zM307.2 243.2h409.6v409.6h-409.6zM624.384 336.128h-224.512v224h224.256zM438.528 374.528h147.456v147.2h-147.712z" />
<glyph unicode="&#xe91f;" glyph-name="category-17" d="M721.408 145.92c-48.868 1.511-87.908 41.488-87.908 90.583 0 37.329 22.57 69.387 54.807 83.271l0.589 0.226-11.776 51.2h-330.24l-11.776-51.2c34.138-13.424 57.863-46.101 57.863-84.32 0-49.909-40.459-90.368-90.368-90.368s-90.368 40.459-90.368 90.368c0 48.015 37.447 87.284 84.73 90.195l0.256 0.013 72.192 317.696h-95.232v68.096h-94.976v38.4h665.6v-38.4h-94.976v-67.072h-95.232l72.192-317.696c47.092-3.586 83.943-42.678 83.943-90.377 0-49.591-39.833-89.879-89.25-90.614l-0.069-0.001zM721.408 288.512c-28.277 0-51.2-22.923-51.2-51.2s22.923-51.2 51.2-51.2c28.277 0 51.2 22.923 51.2 51.2v0c0 28.277-22.923 51.2-51.2 51.2v0zM302.592 288.512c-28.277 0-51.2-22.923-51.2-51.2s22.923-51.2 51.2-51.2c28.277 0 51.2 22.923 51.2 51.2v0c0 28.277-22.923 51.2-51.2 51.2v0zM355.584 411.136h312.832l-54.016 233.472h-204.8zM312.576 683.008h398.848v28.672h-398.848z" />
<glyph unicode="&#xe920;" glyph-name="close" d="M812.8 147.2c-15.83-15.839-37.704-25.637-61.867-25.637s-46.037 9.797-61.866 25.636v0l-177.067 179.2-179.2-179.2c-15.833-15.833-37.706-25.626-61.867-25.626-48.321 0-87.493 39.172-87.493 87.493 0 24.16 9.793 46.034 25.626 61.867l177.067 177.067-172.8 177.067c-9.595 13.834-15.328 30.978-15.328 49.461 0 48.307 39.16 87.467 87.467 87.467 18.483 0 35.627-5.733 49.751-15.518l-0.29 0.19 179.2-179.2 179.2 179.2c15.833 15.833 37.706 25.626 61.867 25.626 48.321 0 87.493-39.172 87.493-87.493 0-24.16-9.793-46.034-25.626-61.867v0l-177.067-177.067 179.2-179.2c14.862-14.439 24.084-34.614 24.084-56.944 0-25.316-11.854-47.863-30.314-62.394l-0.17-0.129z" />
<glyph unicode="&#xe921;" glyph-name="logo-1" horiz-adv-x="2426" d="M921.876-62.618h-69.119v94.175l-489.882 0.518v-94.348h-69.119v307.235h-224.637v-306.889h-69.119v698.622h361.839v-108.69h130.808c-12.859 21.169-20.471 46.761-20.471 74.13s7.611 52.961 20.833 74.774l-0.362-0.643h-147.051v283.734h542.585v-284.771h-148.606c13.020-21.017 20.736-46.507 20.736-73.8 0-0.116 0-0.232 0-0.349v0.018c0-0.017 0-0.037 0-0.057 0-27.304-7.648-52.822-20.919-74.528l0.357 0.627h182.647zM362.875 101.54h490.573v142.904l-490.573 0.518zM362.875 314.427h490.573v143.422h-490.573zM70.674 314.427h222.045v252.458h-222.564zM616.37 675.402c-40.841-0.098-73.934-33.13-74.13-73.939v-0.019c0 0 0 0 0 0 0-40.976 33.168-74.205 74.121-74.303h0.009c40.941 0 74.13 33.189 74.13 74.13s-33.189 74.13-74.13 74.13v0zM414.715 745.212h403.656v144.805l-403.656 0.864zM670.628 403.245h-108.863v-34.56h108.863zM670.628 190.358h-109.035v-34.56h108.863zM1253.476 606.628h166.059v-82.079h-251.939v435.451h86.399zM1525.978 646.89c10.541-39.225 39.744-58.578 87.609-58.578 1.319-0.075 2.863-0.118 4.416-0.118 26.095 0 49.375 12.050 64.58 30.89l0.124 0.158 64.626-37.324c-28.182-40.459-74.473-66.604-126.87-66.604-3.087 0-6.153 0.091-9.196 0.27l0.42-0.020c-2.092-0.094-4.545-0.147-7.011-0.147-45.2 0-86.199 17.984-116.233 47.186l0.039-0.038c-28.772 28.821-46.565 68.611-46.565 112.557 0 1.8 0.030 3.593 0.089 5.378l-0.007-0.26c-0.035 1.252-0.055 2.725-0.055 4.203 0 43.894 17.636 83.67 46.21 112.626l-0.017-0.018c28.438 29.007 68.031 46.988 111.823 46.988 2.484 0 4.954-0.058 7.409-0.172l-0.348 0.013c1.427 0.050 3.103 0.078 4.787 0.078 42.588 0 80.917-18.233 107.608-47.318l0.097-0.107c27.75-29.236 44.818-68.847 44.818-112.445 0-1.596-0.023-3.187-0.068-4.772l0.005 0.233c-0.169-11.782-1.294-23.178-3.3-34.268l0.19 1.264zM1683.397 708.925c-6.166 35.93-37.086 62.927-74.31 62.927-0.727 0-1.451-0.010-2.173-0.031l0.106 0.002c-1.598 0.117-3.462 0.184-5.342 0.184-37.72 0-69.153-26.918-76.139-62.592l-0.080-0.491zM1964.884 515.218c-0.779-0.014-1.698-0.021-2.619-0.021-89.135 0-161.393 72.258-161.393 161.393 0 1.040 0.010 2.079 0.029 3.114l-0.002-0.155c-0.006 0.518-0.009 1.129-0.009 1.741 0 89.612 72.645 162.257 162.257 162.257 0.732 0 1.464-0.005 2.194-0.015l-0.111 0.001c0.463 0.005 1.011 0.007 1.56 0.007 90.089 0 163.121-73.032 163.121-163.121 0-0.428-0.002-0.855-0.005-1.282v0.065c0.004-0.416 0.006-0.908 0.006-1.4 0-89.803-72.8-162.603-162.603-162.603-0.853 0-1.704 0.007-2.554 0.020l0.128-0.002zM1964.884 593.496c0.664-0.019 1.446-0.030 2.231-0.030 22.71 0 43.257 9.262 58.069 24.216l0.006 0.006c15.081 15.126 24.406 35.998 24.406 59.048 0 0.929-0.015 1.854-0.045 2.775l0.003-0.134c0.025 0.767 0.039 1.668 0.039 2.573 0 22.985-9.253 43.81-24.238 58.951l0.007-0.007c-15.572 15.272-36.925 24.698-60.479 24.698s-44.908-9.426-60.493-24.711l0.014 0.014c-14.774-15.475-23.867-36.485-23.867-59.62 0-0.667 0.008-1.332 0.023-1.995l-0.002 0.099c-0.019-0.668-0.029-1.454-0.029-2.242 0-23.050 9.027-43.992 23.738-59.484l-0.035 0.037c14.741-14.97 35.228-24.245 57.882-24.245 1.035 0 2.065 0.019 3.091 0.058l-0.148-0.004zM1167.422 372.487h86.399v-435.451h-86.399zM1673.893-63.309h-98.84l-155.518 204.247v-204.074h-86.399v435.451h86.399v-192.324l149.643 192.497h98.84l-161.22-211.85zM1802.109 18.597h183.511v-82.079h-269.392v435.451h266.281v-82.079h-180.055v-92.792h164.849v-80.869h-165.022zM2332.771-64l-26.092 78.45h-172.798l-26.265-78.45h-92.62l152.753 435.278h106.271l152.58-435.451zM2159.973 94.801h119.403l-59.442 177.982z" />
<glyph unicode="&#xe922;" glyph-name="magnifier" d="M883.627 136.96l-145.067 144.64c44.76 57.185 71.776 130.136 71.776 209.397 0 188.513-152.82 341.333-341.333 341.333s-341.333-152.82-341.333-341.333c0-188.513 152.82-341.333 341.333-341.333 79.261 0 152.212 27.016 210.147 72.341l-0.75-0.565 144.64-145.067c3.804-3.896 8.336-7.062 13.38-9.279l0.274-0.107c4.653-1.896 10.052-2.997 15.708-2.997 0.328 0 0.654 0.004 0.98 0.011l-0.048-0.001c0.155-0.002 0.339-0.003 0.523-0.003 5.649 0 11.042 1.098 15.977 3.092l-0.286-0.102c10.703 4.429 19.038 12.764 23.363 23.184l0.104 0.283c1.892 4.648 2.99 10.041 2.99 15.691 0 0.184-0.001 0.367-0.003 0.551v-0.028c0.006 0.277 0.010 0.604 0.010 0.932 0 5.656-1.101 11.055-3.099 15.994l0.102-0.286c-2.325 5.317-5.491 9.849-9.378 13.645l-0.008 0.008zM213.333 490.667c0.115 141.298 114.686 255.798 256 255.798 141.385 0 256-114.615 256-256s-114.615-256-256-256c-70.849 0-134.975 28.781-181.326 75.288l-0.007 0.007c-46.139 46.295-74.667 110.169-74.667 180.705 0 0.071 0 0.142 0 0.213v-0.011z" />
<glyph unicode="&#xe923;" glyph-name="mail" d="M750.933 725.333h-477.867c-56.659-0.481-102.404-46.523-102.404-103.25 0-0.301 0.001-0.602 0.004-0.903v0.046-346.453c-0.002-0.255-0.004-0.556-0.004-0.857 0-56.726 45.745-102.769 102.358-103.25h477.913c56.659 0.481 102.404 46.523 102.404 103.25 0 0.301-0.001 0.602-0.004 0.903v-0.046 346.453c0.002 0.255 0.004 0.556 0.004 0.857 0 56.726-45.745 102.769-102.358 103.25h-0.046zM750.933 656.213l-221.867-155.307c-4.874-2.958-10.766-4.709-17.067-4.709s-12.192 1.751-17.215 4.793l0.148-0.083-221.867 155.307z" />
<glyph unicode="&#xe924;" glyph-name="phone-call" d="M550.4 601.6c63.623 0 115.2-51.577 115.2-115.2v0c0-21.208 17.192-38.4 38.4-38.4s38.4 17.192 38.4 38.4v0c-0.242 105.941-86.059 191.758-191.977 192h-0.023c-21.208 0-38.4-17.192-38.4-38.4s17.192-38.4 38.4-38.4v0zM550.4 755.2c148.259-0.483 268.316-120.54 268.8-268.753v-0.047c0-21.208 17.192-38.4 38.4-38.4s38.4 17.192 38.4 38.4v0c0 0.127 0 0.277 0 0.427 0 190.634-154.539 345.173-345.173 345.173-0.15 0-0.3 0-0.45 0h0.023c-21.208 0-38.4-17.192-38.4-38.4s17.192-38.4 38.4-38.4v0zM886.187 297.813c-4.315 12.446-14.437 21.864-27.037 25.114l-0.269 0.059-230.4 52.48c-2.499 0.56-5.37 0.881-8.315 0.881-10.488 0-20.026-4.069-27.12-10.715l0.022 0.020c-5.547-5.12-5.973-5.547-30.72-53.333-83.042 38.979-148.259 104.471-185.899 185.385l-0.981 2.348c48.64 24.747 49.067 24.747 53.76 30.293 6.855 7.059 11.081 16.703 11.081 27.333 0 2.861-0.306 5.651-0.887 8.338l0.047-0.259-52.48 227.84c-8.107 33.28-55.040 38.4-82.347 38.4-0.127 0-0.277 0.001-0.427 0.001-97.32 0-176.213-78.893-176.213-176.213 0-0.15 0-0.3 0.001-0.45v0.023c0-326.599 264.761-591.36 591.36-591.36v0c97.361 0.482 176.158 79.279 176.64 176.594v0.046c0.004 0.432 0.006 0.943 0.006 1.455 0 19.994-3.6 39.146-10.187 56.845l0.367-1.127zM719.36 140.8c-0.127 0-0.277 0-0.427 0-283.948 0-514.133 230.185-514.133 514.133 0 0.15 0 0.3 0 0.45v-0.023c0.062 27.533 11.307 52.428 29.433 70.393l0.007 0.007c20.346 18.439 47.472 29.725 77.234 29.725 2.85 0 5.676-0.104 8.474-0.307l-0.375 0.022 38.827-179.2-20.907-10.667c-32.853-17.067-58.88-31.147-45.227-61.013 23.69-66.731 60.115-123.759 106.695-170.695l-0.028 0.028c46.953-46.721 103.949-83.396 167.462-106.501l3.205-1.019c32.427-12.8 45.227 11.093 62.293 42.667l11.093 20.907 177.92-40.533c0.182-2.424 0.285-5.249 0.285-8.099 0-29.762-11.286-56.888-29.812-77.331l0.087 0.097c-17.172-14.533-39.571-23.368-64.033-23.368-2.842 0-5.656 0.119-8.437 0.353l0.363-0.025z" />
<glyph unicode="&#xe925;" glyph-name="phone" d="M695.467 106.667c-289.846 0.728-524.558 235.74-524.8 525.63v0.023c0.24 86.469 70.151 156.53 156.54 157.013h0.046c24.747 0 66.987-3.413 72.96-34.133l46.933-204.8c0.45-2.131 0.708-4.579 0.708-7.088 0-9.477-3.679-18.096-9.686-24.505l0.018 0.020c-4.693-4.693-4.693-5.12-46.933-26.88 34.501-73.84 92.355-131.97 163.904-165.942l2.069-0.884c22.187 42.667 22.613 42.667 27.307 46.933 6.038 6.118 14.422 9.907 23.691 9.907 2.798 0 5.515-0.345 8.112-0.996l-0.229 0.049 204.373-46.507c29.867-7.253 32.853-48.64 32.853-73.387-1.676-85.658-71.51-154.454-157.412-154.454-0.16 0-0.32 0-0.48 0.001h0.025z" />
<glyph unicode="&#xe926;" glyph-name="pin" d="M512 874.667c-0.005 0-0.011 0-0.017 0-187.313 0-339.386-150.88-341.315-337.737l-0.001-0.183c0-233.813 300.8-494.080 313.6-505.173 7.409-6.367 17.119-10.243 27.733-10.243s20.324 3.876 27.79 10.29l-0.057-0.048c14.933 11.093 313.6 271.36 313.6 505.173-1.93 187.040-154.003 337.92-341.316 337.92-0.006 0-0.012 0-0.018 0h0.001zM512 405.333c-30.86 0.070-59.512 9.464-83.306 25.512l0.532-0.338c-40.748 27.008-67.25 72.67-67.25 124.521 0 41.626 17.080 79.262 44.614 106.283l0.023 0.023c26.971 27.094 64.297 43.86 105.539 43.86 51.524 0 96.936-26.169 123.67-65.94l0.338-0.534c15.772-23.352 25.176-52.132 25.176-83.108 0-0.332-0.001-0.665-0.003-0.996v0.051c-0.481-82.28-67.053-148.852-149.287-149.333h-0.046z" />
<glyph unicode="&#xe927;" glyph-name="instagram" d="M514.133 712.533c-145.73-0.485-263.68-118.734-263.68-264.532 0-146.098 118.436-264.533 264.533-264.533s264.533 118.435 264.533 264.532v0c-1.203 145.911-119.407 263.815-265.318 264.533h-0.069zM694.187 448c0.001-0.254 0.002-0.553 0.002-0.853 0-99.441-80.613-180.053-180.053-180.053s-180.053 80.613-180.053 180.053c0 99.44 80.612 180.052 180.051 180.053v0c98.949-0.477 179.092-80.32 180.053-179.109l0.001-0.091zM762.453 960h-496.64c-146.259-0.239-264.846-118.376-265.813-264.441v-490.76c-0.002-0.382-0.003-0.833-0.003-1.285 0-147.148 118.804-266.548 265.724-267.514h492.465c146.259 0.239 264.846 118.376 265.813 264.441v495.026c0.022 1.27 0.035 2.769 0.035 4.27 0 143.741-116.525 260.267-260.267 260.267-0.462 0-0.924-0.001-1.386-0.004h0.071zM942.507 695.467v-490.667c-0.962-98.88-81.104-178.723-180.008-179.2h-496.686c-1.781-0.065-3.873-0.102-5.974-0.102-96.377 0-174.507 78.129-174.507 174.507 0 0.186 0 0.372 0.001 0.557v-0.029 494.933c0.964 99.029 81.348 178.963 180.457 179.2h492.396c0.767 0.012 1.671 0.018 2.578 0.018 99.49 0 180.31-79.934 181.741-179.084l0.002-0.135zM797.013 810.667c-47.128 0-85.333-38.205-85.333-85.333s38.205-85.333 85.333-85.333c47.128 0 85.333 38.205 85.333 85.333v0c-1.595 46.473-38.861 83.738-85.185 85.329l-0.149 0.004zM826.88 729.6c0.002-0.126 0.003-0.275 0.003-0.424 0-16.731-13.563-30.293-30.293-30.293s-30.293 13.563-30.293 30.293c0 16.731 13.563 30.293 30.293 30.293 0.149 0 0.298-0.001 0.446-0.003h-0.022c0.258 0.008 0.562 0.013 0.866 0.013 16.024 0 29.013-12.99 29.013-29.013 0-0.305-0.005-0.608-0.014-0.91l0.001 0.044z" />
<glyph unicode="&#xe928;" glyph-name="messenger" d="M512 866.987c3.359 0.099 7.311 0.155 11.275 0.155 222.155 0 403.045-176.675 409.829-397.184l0.015-0.624c-6.799-221.133-187.69-397.808-409.845-397.808-3.965 0-7.917 0.056-11.855 0.168l0.579-0.013c-0.221 0-0.483-0.001-0.745-0.001-38.692 0-76.22 4.981-111.979 14.336l3.071-0.682c-1.026 0.199-2.207 0.313-3.413 0.313s-2.387-0.114-3.531-0.331l0.117 0.019c-5.335-0.006-10.337-1.43-14.649-3.916l0.143 0.076-88.747-48.64c-4.034-2.394-8.888-3.818-14.074-3.84h-0.006c-0.001 0-0.002 0-0.003 0-16.495 0-29.867 13.372-29.867 29.867 0 0.15 0.001 0.3 0.003 0.449v-0.023 85.333c0 0.010 0 0.023 0 0.035 0 9.419-4.299 17.834-11.041 23.39l-0.052 0.042c-88.523 71.424-144.852 179.683-145.493 301.119v0.107c6.335 221.037 187.032 397.808 409.015 397.808 3.956 0 7.9-0.056 11.829-0.168l-0.578 0.013zM512 960c-0.211 0-0.461 0-0.711 0-70.727 0-138.233-13.789-199.976-38.826l3.568 1.279c-62.948-25.404-116.892-60.449-162.796-103.902l0.236 0.222c-45.552-43.748-82.53-96.031-108.42-154.329l-1.233-3.111c-26.604-56.308-42.292-122.276-42.666-191.869l-0.001-0.131c0.48-139.798 60.596-265.461 156.221-352.95l0.365-0.33v-57.173c-0.007-0.482-0.011-1.050-0.011-1.62 0-66.922 54.251-121.173 121.173-121.173 21.622 0 41.922 5.663 59.496 15.587l-0.605-0.314 67.84 37.973c32.104-6.779 68.991-10.661 106.785-10.661 71.223 0 139.226 13.784 201.487 38.831l-3.633-1.291c62.948 25.404 116.892 60.449 162.796 103.902l-0.236-0.222c45.552 43.748 82.53 96.031 108.42 154.329l1.233 3.111c26.821 56.685 42.535 123.131 42.667 193.234v0.046c-0.74 69.306-16.387 134.776-43.877 193.603l1.21-2.883c-27.073 61.271-64.372 113.329-110.249 156.348l-0.257 0.239c-45.386 43.265-98.859 78.536-157.848 103.258l-3.432 1.276c-57.82 23.759-124.937 37.552-195.275 37.552-0.799 0-1.598-0.002-2.396-0.005h0.124zM549.547 313.173l-103.253 112.213c-4.068 4.415-9.879 7.171-16.333 7.171-4.036 0-7.82-1.078-11.081-2.961l0.107 0.057-117.76-66.987c-2.952-1.513-6.441-2.399-10.136-2.399-12.489 0-22.613 10.124-22.613 22.613 0 5.86 2.229 11.2 5.886 15.217l-0.016-0.018 170.667 183.893c4.131 4.359 9.962 7.072 16.427 7.072s12.296-2.713 16.417-7.062l0.010-0.010 105.813-113.067c4.13-4.353 9.957-7.062 16.417-7.062 3.995 0 7.748 1.036 11.005 2.854l-0.115-0.059 113.067 64c3.164 1.789 6.947 2.843 10.977 2.843 12.489 0 22.613-10.124 22.613-22.613 0-6.074-2.394-11.588-6.291-15.651l0.008 0.008-168.107-181.76c-3.998-4.421-9.756-7.186-16.159-7.186-7.177 0-13.543 3.475-17.506 8.834l-0.042 0.059z" />
<glyph unicode="&#xe929;" glyph-name="facebook" d="M566.613-64h-163.84c-19.626 0.792-37.162 9.131-49.906 22.173l-0.014 0.014c-13.437 12.279-22.109 29.577-23.034 48.906l-0.006 0.161v302.507h-90.88c-19.626 0.792-37.162 9.131-49.906 22.173l-0.014 0.014c-10.389 13.549-17.089 30.42-18.332 48.788l-0.015 0.278v133.547c0.861 19.423 9.372 36.705 22.572 49.028l0.041 0.038c12.903 13.079 30.582 21.417 50.205 22.182l0.141 0.004h90.88v93.44c10.535 157.53 140.895 281.319 300.169 281.319 6.527 0 13.005-0.208 19.428-0.617l-0.876 0.045h131.84c19.626-0.792 37.162-9.131 49.906-22.173l0.014-0.014c10.465-13.662 17.178-30.695 18.334-49.233l0.013-0.26v-133.547c-0.379-20.053-8.985-38.024-22.573-50.736l-0.040-0.037c-12.903-13.079-30.582-21.417-50.205-22.182l-0.141-0.004h-140.373v-96h136.533c11.681-1.076 22.393-4.268 32.075-9.192l-0.502 0.232c10.49-6.205 19.483-13.568 27.221-22.091l0.086-0.096c8.395-7.241 13.677-17.892 13.677-29.777 0-0.482-0.009-0.961-0.026-1.438l0.002 0.069v-32.853l-42.667-133.547c-5.044-14.969-14.613-27.298-27.060-35.684l-0.246-0.156c-12.468-8.293-27.788-13.232-44.261-13.232-0.34 0-0.679 0.002-1.017 0.006l0.051-0.001h-93.867v-302.507c-0.931-19.49-9.603-36.788-22.985-49.017l-0.055-0.049c-13.071-12.523-30.784-20.292-50.31-20.48h-0.037zM421.12 25.173h122.88v373.76h172.8l27.307 97.707h-195.84v186.88c4.143 24.822 15.586 46.451 32.016 63.163l-0.016-0.016c16.863 16.64 40.041 26.918 65.619 26.918 0.931 0 1.859-0.014 2.784-0.041l-0.136 0.003h113.92v96.853h-113.92c-2.049 0.065-4.46 0.102-6.878 0.102-56.447 0-108.179-20.187-148.371-53.735l0.369 0.3c-40.127-33.822-67.022-82.233-72.464-136.957l-0.069-0.856v-182.613h-159.573v-97.707h159.573z" />
<glyph unicode="&#xe92a;" glyph-name="telegram" d="M896 800.427c25.6 0 42.667-21.76 34.56-64.427l-128-597.333c-6.4-28.587-20.053-42.667-38.827-42.667-11.611 0.705-22.261 4.264-31.43 9.978l0.283-0.165-177.92 128.853c-3.772 2.823-8.498 4.565-13.623 4.693l-0.030 0.001c-6.126-0.087-11.67-2.507-15.798-6.41l0.011 0.010-79.36-76.373c-3.768-3.695-8.935-5.975-14.634-5.975-0.105 0-0.21 0.001-0.315 0.002h0.016c-0.011 0-0.025 0-0.038 0-11.782 0-21.333 9.551-21.333 21.333 0 0.45 0.014 0.897 0.041 1.341l-0.003-0.061 10.24 148.48c0.452 8.722 4.477 16.422 10.627 21.727l0.040 0.033 349.44 317.867c9.813 8.533 5.973 14.933-3.84 14.933-7.557-0.247-14.48-2.769-20.158-6.899l0.104 0.072-430.080-273.067c-4.961-3.17-11-5.071-17.48-5.12h-0.013c-1.474-0.212-3.176-0.333-4.907-0.333s-3.433 0.121-5.099 0.356l0.192-0.022-176.64 56.747c-42.667 12.8-42.667 42.667 8.533 61.44l746.24 287.147c5.673 2.407 12.269 3.816 19.191 3.84h0.009zM896 891.733c-0.010 0-0.021 0-0.033 0-17.915 0-35.062-3.286-50.872-9.288l0.985 0.328h-2.133l-746.24-288c-90.453-34.987-97.707-98.133-97.707-123.307 1.451-32.318 16.309-60.902 39.105-80.515l0.148-0.125c15.43-13.173 33.807-23.412 53.961-29.582l1.079-0.284 176.64-55.040c11.089-3.409 23.846-5.428 37.057-5.546h19.263l-8.533-120.747c-0.226-2.663-0.354-5.762-0.354-8.892 0-29.595 11.5-56.503 30.276-76.501l-0.055 0.059c20.698-22.244 50.1-36.149 82.752-36.267h0.022c31.765 0.119 60.376 13.519 80.589 34.933l0.051 0.054 37.12 35.413 130.987-96.427 4.267-3.413 5.12-2.56c21.8-13.336 48.109-21.379 76.268-21.759l0.106-0.001c65.596 1.186 119.377 50.255 127.925 113.67l0.075 0.676 128 597.333c3.090 11.327 4.865 24.332 4.865 37.752 0 34.089-11.455 65.503-30.725 90.602l0.26-0.353c-23.655 29.244-59.537 47.788-99.75 47.788-0.182 0-0.363 0-0.545-0.001h0.028z" />
<glyph unicode="&#xe92b;" glyph-name="viber" d="M908.373 860.16c-26.453 23.467-134.827 99.84-376.747 99.84 0 0-285.013 16.213-423.68-104.533-77.227-73.813-104.533-181.333-107.947-314.453s-6.827-384 246.613-449.707v0-103.253s0-42.667 27.307-49.92 55.893 21.333 89.173 55.467c18.347 18.773 42.667 46.507 62.72 67.413 26.802-2.432 57.972-3.818 89.466-3.818 82.336 0 162.458 9.477 239.335 27.398l-7.095-1.393c143.516 21.164 254.033 138.251 264.898 283.126l0.062 1.034c34.56 257.28-14.933 419.413-104.107 492.8zM938.667 386.133c-7.123-119.712-98.941-215.933-216.009-229.861l-1.164-0.113c-64.622-15.648-138.814-24.622-215.101-24.622-21.745 0-43.32 0.729-64.702 2.164l2.897-0.156s-110.507-125.44-145.92-157.867c-11.093-10.667-23.040-9.813-23.040 11.52 0 13.653 0 170.667 0 170.667v0c-213.333 56.32-202.24 268.8-199.68 379.733s24.32 201.813 89.6 263.253c117.76 100.693 359.68 85.333 359.68 85.333 204.373 0 302.080-59.307 324.693-78.933 77.653-60.587 116.053-206.507 88.747-421.12zM644.693 547.84c0-7.541-6.113-13.653-13.653-13.653s-13.653 6.113-13.653 13.653v0c0.051 0.956 0.081 2.074 0.081 3.2 0 35.111-28.463 63.573-63.573 63.573-1.831 0-3.643-0.077-5.434-0.229l0.234 0.016c-7.069 0-12.8 5.731-12.8 12.8s5.731 12.8 12.8 12.8v0c2.062 0.17 4.463 0.266 6.886 0.266 49.249 0 89.173-39.924 89.173-89.173 0-1.144-0.022-2.283-0.064-3.417l0.005 0.164zM687.36 525.227c2.133 85.333-53.76 151.040-159.573 158.293-0.711-0.136-1.53-0.213-2.366-0.213-7.305 0-13.227 5.922-13.227 13.227s5.922 13.227 13.227 13.227c0.836 0 1.655-0.078 2.448-0.226l-0.082 0.013c122.453-8.533 187.733-88.32 185.173-185.173 1.707-17.067-26.027-16.213-25.6 0.853zM786.773 498.347c0-7.541-6.113-13.653-13.653-13.653s-13.653 6.113-13.653 13.653v0c0.162 3.311 0.254 7.19 0.254 11.092 0 133.609-108.311 241.92-241.92 241.92-5.043 0-10.050-0.154-15.016-0.458l0.682 0.033c-7.069 0-12.8 5.731-12.8 12.8s5.731 12.8 12.8 12.8v0c4.388 0.256 9.519 0.401 14.685 0.401 148.454 0 268.8-120.346 268.8-268.8 0-3.442-0.065-6.869-0.193-10.28l0.015 0.492zM762.88 302.080v0c-23.040-37.973-65.28-79.787-109.227-66.56v0c-82.26 28.802-153.568 66.932-217.711 114.219l2.244-1.579c-33.583 25.427-62.974 53.465-88.913 84.489l-0.687 0.844c-23.035 27.459-44.478 58.011-63.196 90.338l-1.657 3.102c-20.629 31.927-39.293 68.628-54.082 107.246l-1.384 4.114c-14.933 41.387 30.293 81.92 70.4 103.253v0c5.867 3.615 12.975 5.757 20.584 5.757 11.833 0 22.456-5.179 29.726-13.395l0.036-0.042s26.027-29.44 37.547-42.667 24.32-35.413 32-47.787c4.131-6.454 6.586-14.327 6.586-22.773 0-12.638-5.494-23.992-14.225-31.805l-0.041-0.036-26.88-19.2c-6.886-6.197-11.197-15.14-11.197-25.089 0-0.931 0.038-1.852 0.112-2.764l-0.008 0.12c28.054-83.496 95.675-146.746 179.99-168.152l1.77-0.381c0.956-0.085 2.067-0.133 3.191-0.133 10.162 0 19.402 3.947 26.27 10.392l-0.021-0.019 20.053 24.32c8.359 8.466 19.965 13.71 32.796 13.71 8.68 0 16.8-2.4 23.732-6.573l-0.208 0.116c36.611-19.798 68.202-41.588 97.187-66.34l-0.76 0.634c7.806-6.387 12.749-16.020 12.749-26.808 0-7.739-2.544-14.883-6.84-20.644l0.065 0.091z" />
<glyph unicode="&#xe92c;" glyph-name="whatsapp" d="M870.827 811.093c-91.794 91.366-218.379 147.848-358.156 147.848-280.413 0-507.733-227.32-507.733-507.733 0-92.869 24.933-179.914 68.471-254.806l-1.302 2.425-72.107-262.827 269.227 70.827c69.869-38.941 153.268-61.867 242.021-61.867 0.265 0 0.529 0 0.794 0.001h-0.041c0.006 0 0.014 0 0.022 0 281.12 0 509.323 226.563 511.977 507.055l0.002 0.252c-1.824 140.643-60.076 267.333-153.1 358.755l-0.073 0.072zM512 30.293c-78.75 0.255-152.343 22.107-215.232 59.939l1.899-1.059-17.067 8.96-159.573-42.667 42.667 155.733-10.24 16.213c-38.017 62.161-60.529 137.391-60.529 217.879 0 233.285 189.115 422.4 422.4 422.4 230.833 0 418.419-185.16 422.337-415.058l0.005-0.368c-2.652-233.614-192.65-421.973-426.641-421.973-0.009 0-0.018 0-0.027 0h0.002zM743.68 346.453c-12.8 6.4-75.093 36.693-85.333 42.667s-20.48 6.4-28.587-6.4-32.853-42.667-42.667-49.92-14.933-9.387-27.307-2.987c-73.206 30.259-132.155 82.733-169.777 148.914l-0.889 1.7c-13.227 22.613 12.8 20.907 37.12 69.547 1.829 3.192 2.908 7.017 2.908 11.093s-1.079 7.901-2.966 11.204l0.058-0.111c-5.547 3.84-31.147 66.987-42.24 92.16s-20.907 21.333-28.587 21.76h-23.467c-13.244-0.264-25.069-6.128-33.24-15.314l-0.040-0.046c-26.379-25.619-42.747-61.421-42.747-101.046 0-1.676 0.029-3.346 0.087-5.008l-0.007 0.241c4.402-50.013 23.138-94.953 52.021-131.505l-0.395 0.518c54.705-81.365 127.79-146.385 213.551-190.095l3.196-1.478c80.213-34.987 111.787-37.973 151.893-32 36.444 7.765 66.656 29.879 85.007 60.010l0.326 0.576c5.081 12.213 8.032 26.4 8.032 41.277 0 6.672-0.594 13.206-1.731 19.551l0.099-0.668c-3.84 5.973-12.373 8.96-24.747 15.36z" />
<glyph unicode="&#xe92d;" glyph-name="404" d="M756.844 447.569c-25.785 25.774-61.4 41.715-100.739 41.715-78.699 0-142.498-63.798-142.498-142.498s63.798-142.498 142.498-142.498c39.339 0 74.954 15.941 100.74 41.715l-0.001-0.001c25.944 25.723 42.006 61.377 42.006 100.783s-16.062 75.060-41.996 100.773l-0.010 0.010zM726.663 276.13c-18.068-18.049-43.019-29.211-70.577-29.211-55.155 0-99.867 44.712-99.867 99.867s44.712 99.867 99.867 99.867c27.558 0 52.509-11.162 70.578-29.212l-0.001 0.001c18.24-18.010 29.538-43.013 29.538-70.656s-11.298-52.646-29.528-70.646l-0.010-0.010zM1005.352 87.498l-98.466 98.358c-3.885 3.811-9.213 6.162-15.091 6.162s-11.205-2.352-15.094-6.166l-14.818-14.818-30.397 30.397c32.496 39.107 52.217 89.838 52.217 145.176 0 87.257-49.033 163.061-121.048 201.362l-1.232 0.598v346.759c-0.152 11.79-9.745 21.288-21.556 21.288-0.001 0-0.001 0-0.002 0h-718.309c0 0-0.001 0-0.002 0-11.811 0-21.404-9.499-21.556-21.274v-633.601c0.152-11.79 9.745-21.288 21.556-21.288 0.001 0 0.001 0 0.002 0h432.721c39.11-72.778 114.71-121.423 201.672-121.423 55.431 0 106.246 19.765 145.782 52.631l-0.372-0.301 30.343-30.343-14.821-14.821c-3.795-3.882-6.136-9.2-6.136-15.064s2.341-11.181 6.14-15.068l-0.004 0.004 98.52-98.358q44.948-37.187 89.95 0 37.295 44.948 0 89.896zM444.093 874.253v-244.952c-13.177-5.743-23.453-16.089-28.966-28.96l-0.137-0.359h-68.015c-5.726 13.263-16.097 23.615-29.014 29.181l-0.359 0.138v244.952zM42.685 874.253h232.179v-261.982c0-11.906 9.652-21.558 21.558-21.558v0c6.804-0.030 12.311-5.538 12.342-12.339v-0.003c0.152-11.79 9.745-21.288 21.556-21.288 0.001 0 0.001 0 0.002 0h101.43c0 0 0.001 0 0.002 0 11.811 0 21.404 9.499 21.556 21.274v0.014c0 6.816 5.526 12.342 12.342 12.342v0c11.906 0 21.558 9.652 21.558 21.558v0 261.982h232.232v-308.547c-18.888 5.644-40.591 8.893-63.053 8.893-118.525 0-215.925-90.451-226.938-206.091l-0.071-0.919h-386.695zM42.685 283.082v41.876h386.317c1.515-15.57 4.349-29.796 8.442-43.479l-0.412 1.602zM524.935 215.875c-33.6 33.559-54.386 79.942-54.386 131.18 0 102.392 83.005 185.398 185.398 185.398s185.398-83.005 185.398-185.398c0-102.39-83.002-185.395-185.392-185.398v0c-0.214-0.001-0.467-0.001-0.72-0.001-50.93 0-97.018 20.729-130.289 54.21l-0.010 0.010zM975.171 27.621c-3.805-3.766-9.041-6.093-14.821-6.093s-11.016 2.327-14.823 6.095l0.002-0.002-83.213 83.537 29.642 29.588 83.375-83.321c3.819-3.782 6.184-9.026 6.184-14.823 0-5.876-2.43-11.185-6.34-14.976l-0.005-0.005z" />
<glyph unicode="&#xe92e;" glyph-name="m-minus" d="M853.333 533.333h-682.667c-47.128 0-85.333-38.205-85.333-85.333s38.205-85.333 85.333-85.333v0h682.667c47.128 0 85.333 38.205 85.333 85.333s-38.205 85.333-85.333 85.333v0z" />
<glyph unicode="&#xe92f;" glyph-name="m-plus" d="M853.333 533.333h-256v256c0 47.128-38.205 85.333-85.333 85.333s-85.333-38.205-85.333-85.333v0-256h-256c-47.128 0-85.333-38.205-85.333-85.333s38.205-85.333 85.333-85.333v0h256v-256c0-47.128 38.205-85.333 85.333-85.333s85.333 38.205 85.333 85.333v0 256h256c47.128 0 85.333 38.205 85.333 85.333s-38.205 85.333-85.333 85.333v0z" />
</font>
</defs>
</svg>
