<?xml version="1.0" standalone="no"?>
<!DOCTYPE svg PUBLIC "-//W3C//DTD SVG 1.1//EN" "http://www.w3.org/Graphics/SVG/1.1/DTD/svg11.dtd" >
<svg xmlns="http://www.w3.org/2000/svg">
<metadata>Generated by IcoMoon</metadata>
<defs>
<font id="leoikea" horiz-adv-x="1024">
<font-face units-per-em="1024" ascent="960" descent="-64" />
<missing-glyph horiz-adv-x="1024" />
<glyph unicode="&#x20;" horiz-adv-x="512" d="" />
<glyph unicode="&#xe900;" glyph-name="404" horiz-adv-x="1118" d="M471.441 567.392h-111.172c-12.875 0-23.294 10.421-23.294 23.274 0 7.42-6.051 13.466-13.49 13.466-12.875 0-23.294 10.421-23.294 23.274v309.32c0 12.853 10.419 23.274 23.294 23.274h184.741c12.876 0 23.295-10.421 23.295-23.274v-309.32c0-12.853-10.419-23.274-23.295-23.274-7.439 0-13.49-6.046-13.49-13.466 0-12.853-10.419-23.274-23.295-23.274zM378.855 613.939h74.001c6.074 14.41 17.653 25.967 32.076 32.047v267.466h-138.152v-267.466c14.423-6.080 26.001-17.638 32.075-32.047zM716.282 88.758c-66.489 0-129.028 25.877-176.026 72.851-47.021 46.969-72.932 109.427-72.932 175.863 0 66.446 25.911 128.903 72.932 175.871 46.999 46.98 109.513 72.845 176.026 72.845 66.495 0 129.012-25.865 176.010-72.845 97.068-96.97 97.068-254.772 0-351.74-46.998-46.98-109.515-72.845-176.010-72.845zM716.282 539.64c-54.072 0-104.866-21.024-143.086-59.207-38.218-38.183-59.283-88.959-59.283-142.96 0-53.99 21.065-104.766 59.283-142.948 38.221-38.188 89.014-59.221 143.086-59.221 54.054 0 104.848 21.027 143.066 59.21 78.895 78.83 78.895 207.088 0 285.92-38.218 38.183-89.011 59.207-143.066 59.207zM510.888 221.343h-487.593c-12.876 0-23.295 10.422-23.295 23.275v92.272c0 12.853 10.419 23.275 23.295 23.275h467.37c12.853 0 23.272-10.387 23.294-23.228 0.068-28.431 6.165-56.261 18.154-82.732 3.253-7.203 2.639-15.566-1.661-22.204-4.277-6.644-11.647-10.658-19.564-10.658zM46.589 267.888h430.836c-4.436 14.989-7.416 30.255-8.918 45.733h-421.918v-45.733zM490.664 313.621h-467.37c-12.876 0-23.295 10.417-23.295 23.27v599.836c0 12.853 10.419 23.274 23.295 23.274h785.101c12.877 0 23.293-10.421 23.293-23.274v-393.666c0-7.887-4.002-15.239-10.623-19.535-6.597-4.284-14.995-4.92-22.181-1.704-76.206 34.024-166.859 17.399-225.689-41.388-38.354-38.308-59.396-89.288-59.237-143.496 0.023-6.191-2.434-12.1-6.802-16.478-4.367-4.373-10.305-6.838-16.492-6.838zM46.589 360.166h421.781c5.187 57.89 30.256 111.597 71.885 153.178 64.081 64.082 158.942 87.47 244.84 62.912v337.197h-738.507v-553.287zM716.282 181.866c-41.625 0-80.731 16.178-110.145 45.568-60.717 60.687-60.717 159.416 0 220.1 29.437 29.388 68.561 45.57 110.145 45.57 41.59 0 80.714-16.183 110.151-45.559 60.716-60.696 60.716-159.425 0-220.112-29.414-29.39-68.52-45.568-110.151-45.568zM716.282 446.557c-29.16 0-56.573-11.342-77.206-31.945-42.537-42.525-42.537-111.732 0-154.269 20.609-20.592 48.022-31.932 77.206-31.932 29.19 0 56.602 11.341 77.212 31.932 42.537 42.537 42.537 111.744 0 154.28-20.633 20.592-48.046 31.933-77.212 31.933zM941.133 89.529c-5.962 0-11.923 2.272-16.472 6.821l-65.312 65.254c-9.098 9.087-9.098 23.817 0 32.909 9.104 9.092 23.84 9.092 32.945 0l65.306-65.254c9.104-9.092 9.104-23.823 0-32.909-4.549-4.549-10.505-6.821-16.466-6.821zM1048.664-64c-17.791 0-35.581 6.75-49.117 20.274l-107.532 107.449c-9.098 9.087-9.098 23.817 0 32.909l65.312 65.254c9.098 9.092 23.84 9.092 32.939 0l107.532-107.438c13.13-13.1 20.362-30.538 20.362-49.081 0-18.538-7.233-35.969-20.362-49.081-13.536-13.524-31.32-20.286-49.134-20.286zM941.427 80.178l91.065-90.983c8.916-8.91 23.452-8.898 32.368 0.012 4.326 4.32 6.709 10.058 6.709 16.16 0 6.115-2.383 11.853-6.709 16.16l-91.059 90.989-32.374-32.338z" />
<glyph unicode="&#xe901;" glyph-name="arrow" horiz-adv-x="1877" d="M887.467-54.658c-85.333 0-170.667 34.133-238.933 102.4l-597.333 597.333c-68.267 68.267-68.267 170.666 0 238.933s170.667 68.267 238.933 0l597.333-597.333 597.333 597.333c68.267 68.267 170.667 68.267 238.933 0s68.267-170.666 0-238.933l-580.267-597.333c-68.267-68.267-153.6-102.4-256-102.4z" />
<glyph unicode="&#xe902;" glyph-name="ben-1" horiz-adv-x="1354" d="M31.531 611.275h168.975c17.417 0 31.531 12.612 31.531 30.028s-14.099 30.029-31.531 30.029h-168.975c-17.417 0-31.531-12.612-31.531-30.029s14.099-30.028 31.531-30.028zM233.313 190.864h281.27c17.418 0 31.529 12.612 31.529 30.030 0 17.415-14.098 30.030-31.529 30.030h-186.963l10.317 52.039c3.287 17.101-7.899 32.897-25.001 36.2-17.102 3.214-33.633-6.785-36.936-23.902l-12.612-64.337h-30.075c-17.417 0-31.531-12.615-31.531-30.030 0-17.418 14.114-30.030 31.531-30.030zM129.023 746.405h359.574c17.415 0 31.529 12.612 31.529 30.029s-14.098 30.030-31.529 30.030h-52.551l19.608 90.088h235.609l-79.637-392.123c-2.524-12.341 2.537-26.38 12.869-33.574 10.342-7.175 23.962-8.225 34.667-1.576l142.323 88.107 125.493-87.701c5.361-3.739 11.667-5.751 18.032-5.751 3.964 0 7.915 0.69 11.697 2.193 9.85 3.947 17.071 15.297 19.188 25.689l82.237 404.735h221.27l-151.483-765.041c-10.613-54.926-65.704-105.809-120.297-105.809h-722.267l9.264 49.819c3.303 17.101-7.882 34.489-24.984 37.776-17.087 3.32-33.618-7.449-36.921-24.55l-16.516-85.388c-1.787-9.233 0.646-18.904 6.637-26.155s14.909-11.561 24.324-11.561h760.464c84.232 0 165.971 68.588 182.173 152.46l158.961 798.178c1.847 9.249-0.558 20.18-6.564 27.477-5.976 7.312-14.924 12.853-24.351 12.853h-887.204c-14.653 0-27.371-11.351-30.703-25.615l-28.259-121.994c-0.135-0.555-0.119-2.537-0.208-2.537h-242.445c-17.417 0-31.531-12.612-31.531-30.030s14.114-30.029 31.531-30.029zM755.633 896.552h238.1l-69.999-345.158-103.209 70.616c-5.404 3.766-11.71 4.968-18.032 4.968-5.767 0-11.548-1.906-16.635-5.090l-97.762-58.167 67.538 332.83zM376.882 386.055c17.418 0 31.533 12.612 31.533 30.030 0 17.415-14.098 30.030-31.533 30.030h-11.65l42.357 217.757c3.316 17.101-7.868 32.807-24.969 36.11-17.147 3.333-33.65-6.651-36.937-23.738l-44.683-230.128h-132.715c-17.417 0-31.531-12.615-31.531-30.030 0-17.418 14.099-30.030 31.531-30.030h208.597zM122.504 250.923h-58.497c-17.417 0-31.531-12.615-31.531-30.030 0-17.418 14.099-30.030 31.531-30.030h58.497c17.417 0 31.531 12.612 31.531 30.030 0 17.415-14.114 30.030-31.531 30.030z" />
<glyph unicode="&#xe903;" glyph-name="ben-2" horiz-adv-x="1078" d="M862.69 256.286h-138.58c0.709 3.711 1.153 7.481 1.153 11.35v214.752c0 13.932-11.275 25.22-25.22 25.22h-322.226c-13.932 0-25.22-11.277-25.22-25.22v-226.113h-137.388c-13.931 0-25.22-11.277-25.22-25.22v-251.335c0-13.932 11.277-25.22 25.22-25.22h285.693c8.707 0 16.958 1.849 24.463 5.115 4.228-3.169 9.405-5.115 15.085-5.115h285.693c34.059 0 61.766 27.729 61.766 61.788v214.779c0 13.932-11.277 25.22-25.22 25.22zM681.453 205.859h36.737v-52.566l-8.189 5.045c-4.058 2.485-8.634 3.735-13.21 3.735-5.117 0-10.21-1.549-14.568-4.624l-0.771-0.542v48.953zM555.558 457.181v-52.542l-8.189 5.045c-4.058 2.485-8.634 3.735-13.21 3.735-5.117 0-10.208-1.549-14.568-4.624l-0.768-0.566v48.953h36.735zM403.052 457.181h65.342v-97.649c0-9.405 5.26-18.063 13.608-22.374 3.662-1.897 7.648-2.835 11.612-2.835 5.117 0 10.208 1.549 14.543 4.624l26.974 19.046 32.437-19.936c7.782-4.778 17.521-4.972 25.519-0.515 7.976 4.454 12.9 12.873 12.9 22v97.649h68.837v-189.545c0-6.149-5.187-11.35-11.299-11.35h-260.473v200.885zM356.215 205.859h36.735v-52.566l-8.214 5.045c-4.058 2.485-8.634 3.735-13.21 3.735-5.093 0-10.208-1.549-14.543-4.624l-0.768-0.542v48.953zM512.216 16.3c0-6.149-5.187-11.35-11.299-11.35h-260.487v200.909h65.345v-97.673c0-9.429 5.26-18.063 13.606-22.399 3.662-1.873 7.65-2.811 11.614-2.811 5.115 0 10.208 1.549 14.543 4.624l26.972 19.046 32.439-19.936c7.782-4.78 17.521-4.972 25.519-0.515 7.949 4.454 12.897 12.873 12.897 22v97.673h68.84l0.011-189.569zM837.481 16.3c0-6.149-5.187-11.35-11.323-11.35h-260.487v200.909h65.345v-97.673c0-9.429 5.26-18.063 13.63-22.399 3.662-1.873 7.626-2.811 11.587-2.811 5.117 0 10.235 1.549 14.568 4.624l26.95 19.046 32.439-19.936c7.78-4.78 17.545-4.972 25.519-0.515 7.974 4.454 12.897 12.873 12.897 22v97.673h68.864l0.011-189.569zM1064.677 676.498l-513.717 277.695c-7.483 4.035-16.513 4.035-23.997 0l-513.729-277.695c-12.25-6.643-16.813-21.93-10.208-34.204 6.617-12.213 21.941-16.788 34.203-10.17l46.513 25.147v-677.336c0-13.932 11.277-25.22 25.22-25.22s25.22 11.277 25.22 25.22v580.899h809.536v-580.91c0-13.932 11.275-25.22 25.22-25.22 13.943 0 25.22 11.277 25.22 25.22v677.333l46.535-25.147c3.818-2.064 7.925-3.050 11.962-3.050 8.96 0 17.667 4.805 22.218 13.234 6.591 12.275 2.040 27.562-10.197 34.204zM134.17 611.261v48.724h809.535v-48.724h-809.535zM182.076 710.412l356.898 192.932 356.861-192.932h-713.76z" />
<glyph unicode="&#xe904;" glyph-name="ben-3" horiz-adv-x="975" d="M687.996 603.658c-48.235 58.088-120.932 95.149-202.167 95.149-80.972 0-153.493-36.83-201.716-94.608-2.935-2.219-5.439-5.098-7.063-8.694-0.032-0.112-0.054-0.2-0.098-0.31-33.741-44.188-53.843-99.33-53.843-159.095 0-61.84 21.516-118.694 57.383-163.618 0.441-0.629 0.926-1.204 1.414-1.79 48.213-59.324 121.715-97.309 203.932-97.309 80.706 0 152.981 36.608 201.218 94.035 0.397 0.451 0.805 0.883 1.18 1.378 37.654 45.468 60.306 103.778 60.306 167.305 0 62.237-21.792 119.454-58.122 164.523-0.717 1.104-1.543 2.097-2.426 3.035zM663.218 310.843c-26.283 10.647-54.474 18.788-83.966 24.393 5.208 25.188 8.477 51.415 9.801 78.202h112.989c-3.95-37.964-17.84-72.96-38.824-102.595zM269.592 413.438h104.516c1.324-26.897 4.613-53.246 9.865-78.499-26.956-5.264-52.76-12.666-77-22.133-20.202 29.206-33.507 63.529-37.381 100.632zM306.091 558.224c24.040-9.445 49.671-16.913 76.425-22.177-4.766-25-7.756-50.927-8.726-77.285h-104.197c3.818 36.596 16.75 70.522 36.498 99.462zM485.829 653.505c0.827 0 1.609-0.11 2.426-0.122 14.894-23.201 27.085-50.188 36.264-79.735-13.78-1.18-27.748-1.897-41.904-1.897-14.863 0-29.523 0.729-43.954 2.019 9.126 29.325 21.194 56.103 35.945 79.172 3.742 0.178 7.426 0.563 11.223 0.563zM545.022 645.086c32.834-9.311 62.435-26.158 87.016-48.545-19.639-7.051-40.358-12.644-61.928-16.694-6.751 23.103-15.138 45.027-25.088 65.239zM419.355 458.75c0.97 24.164 3.54 47.872 7.963 70.6 18.149-1.885 36.586-2.923 55.298-2.923 17.983 0 35.801 0.883 53.255 2.648 4.391-22.65 6.975-46.273 7.946-70.334l-124.462 0.010zM543.695 413.438c-1.302-24.647-4.437-48.72-9.314-71.692-17.013 1.655-34.28 2.526-51.778 2.526-18.181 0-36.133-0.948-53.775-2.736-4.908 23.016-8.041 47.167-9.374 71.914l124.24-0.012zM393.14 580.147c-19.198 3.684-37.678 8.66-55.342 14.729 22.421 20.907 49.162 37.137 78.828 47.133-9.223-19.263-17.108-40.016-23.486-61.862zM395.391 290.96c6.897-22.065 15.304-42.928 25.166-62.215-30.727 9.699-58.375 26.205-81.554 47.477 17.993 6.112 36.827 11.076 56.388 14.738zM440.881 297.094c13.724 1.182 27.624 1.855 41.723 1.855 13.395 0 26.648-0.651 39.7-1.721-9.752-29.238-22.618-55.793-38.142-78.434-1.787 0-3.562 0.197-5.349 0.254-15.426 22.584-28.189 48.986-37.932 78.046zM567.881 291.26c21.933-3.984 43.006-9.567 62.988-16.64-25.266-22.716-55.784-39.541-89.556-48.467 10.472 20.092 19.351 41.96 26.568 65.107zM589.351 458.75c-0.97 26.258-3.93 52.075-8.675 76.988 29.303 5.661 57.261 13.87 83.366 24.517 20.531-29.403 34.094-64.015 37.988-101.505h-112.679zM929.397 436.673c9.543 11.686 15.301 26.602 15.301 42.842 0 37.378-30.405 67.786-67.799 67.786-37.356 0-67.764-30.408-67.764-67.786 0-15.611 5.352-29.945 14.246-41.418-28.83-17.554-48.172-49.186-48.172-85.35 0-12.522 10.14-22.652 22.652-22.652 12.522 0 22.66 10.13 22.66 22.652 0 30.142 24.527 54.689 54.704 54.689 30.152 0 54.701-24.547 54.701-54.689 0-12.522 10.14-22.652 22.662-22.652 12.51 0 22.65 10.13 22.65 22.652-0.012 35.162-18.325 66.087-45.841 83.927zM876.9 501.999c12.39 0 22.487-10.094 22.487-22.484s-10.096-22.474-22.487-22.474c-12.366 0-22.45 10.084-22.45 22.474s10.084 22.484 22.45 22.484zM418.019 719.735c12.522 0 22.65 10.128 22.65 22.651 0 30.164 24.549 54.702 54.723 54.702 30.142 0 54.701-24.537 54.701-54.702 0-12.523 10.128-22.651 22.652-22.651 12.522 0 22.66 10.128 22.66 22.651 0 35.173-18.315 66.11-45.829 83.939 9.543 11.684 15.301 26.6 15.301 42.83 0 37.38-30.408 67.798-67.777 67.798-37.378 0-67.786-30.407-67.786-67.798 0-15.601 5.352-29.943 14.243-41.407-28.828-17.575-48.191-49.207-48.191-85.362 0-12.511 10.14-22.651 22.652-22.651zM497.101 891.64c12.368 0 22.465-10.095 22.465-22.485 0-12.379-10.096-22.463-22.465-22.463-12.388 0-22.484 10.084-22.484 22.463 0.012 12.39 10.096 22.485 22.484 22.485zM549.552 54.679c9.567 11.683 15.326 26.59 15.326 42.818 0 37.391-30.408 67.799-67.777 67.799-37.378 0-67.786-30.408-67.786-67.799 0-15.601 5.352-29.954 14.243-41.418-28.828-17.564-48.191-49.196-48.191-85.35 0-12.522 10.14-22.65 22.652-22.65 12.522 0 22.65 10.128 22.65 22.65 0 30.142 24.549 54.713 54.723 54.713 30.142 0 54.701-24.571 54.701-54.713 0-12.522 10.128-22.65 22.652-22.65 12.522 0 22.66 10.128 22.66 22.65 0 35.184-18.313 66.121-45.853 83.951zM497.101 119.971c12.368 0 22.465-10.084 22.465-22.474 0-12.368-10.096-22.452-22.465-22.452-12.388 0-22.484 10.084-22.484 22.452 0.012 12.39 10.096 22.474 22.484 22.474zM154.749 352.734c0-12.522 10.128-22.65 22.651-22.65 12.512 0 22.651 10.128 22.651 22.65 0 35.174-18.315 66.087-45.853 83.929 9.566 11.683 15.325 26.6 15.325 42.84 0 37.381-30.407 67.786-67.787 67.786s-67.798-30.405-67.798-67.786c0-15.599 5.351-29.942 14.255-41.406-28.829-17.564-48.192-49.196-48.192-85.363 0-12.522 10.128-22.65 22.651-22.65 12.512 0 22.651 10.128 22.651 22.65 0 30.142 24.548 54.691 54.724 54.691s54.724-24.537 54.724-54.691zM101.735 501.999c12.39 0 22.485-10.094 22.485-22.484s-10.095-22.474-22.485-22.474c-12.39 0-22.485 10.084-22.485 22.474s10.095 22.484 22.485 22.484zM360.404 88.118c-96.639 34.818-175.084 109.105-215.232 203.791-4.888 11.527-18.182 16.891-29.69 12.025-11.529-4.888-16.902-18.183-12.037-29.711 45.048-106.26 133.113-189.647 241.589-228.737 2.548-0.905 5.142-1.334 7.69-1.334 9.279 0 17.974 5.747 21.304 14.97 4.272 11.774-1.841 24.749-13.624 28.996zM862.581 323.608c-11.739 4.225-24.737-1.812-29.018-13.57-34.267-94.454-106.732-171.895-198.802-212.475-11.442-5.042-16.65-18.425-11.596-29.864 3.728-8.497 12.037-13.539 20.741-13.539 3.045 0 6.156 0.629 9.126 1.919 103.334 45.556 184.647 132.464 223.13 238.502 4.259 11.761-1.809 24.756-13.58 29.028zM622.59 779.776c80.806-32.183 148.029-92.225 189.238-169.025 4.091-7.614 11.903-11.949 19.98-11.949 3.63 0 7.292 0.87 10.713 2.701 11.023 5.927 15.148 19.661 9.245 30.683-46.273 86.202-121.705 153.558-212.407 189.702-11.63 4.634-24.803-1.048-29.435-12.666-4.635-11.618 1.024-24.813 12.666-29.447zM121.364 583.721c3.144-1.49 6.443-2.197 9.709-2.197 8.473 0 16.605 4.788 20.477 12.954 42.047 88.574 119.1 158.014 211.414 190.529 11.805 4.148 17.993 17.090 13.846 28.895-4.15 11.794-17.113 18.028-28.884 13.835-103.634-36.475-190.109-114.412-237.319-213.83-5.351-11.31-0.53-24.812 10.757-30.186z" />
<glyph unicode="&#xe905;" glyph-name="ben-4" horiz-adv-x="910" d="M316.466 186.916c-5.359 0-10.752-0.614-16.009-1.811-18.58-4.273-34.388-15.503-44.501-31.658-10.11-16.143-13.332-35.271-9.070-53.84 7.482-32.586 36.065-55.362 69.489-55.362 5.359 0 10.729 0.614 15.974 1.802 18.58 4.271 34.388 15.515 44.501 31.678 10.113 16.12 13.321 35.248 9.070 53.842-7.482 32.586-36.054 55.348-69.455 55.348zM338.614 101.665c-3.725-5.939-9.53-10.056-16.354-11.633-13.872-3.188-28.224 5.985-31.378 19.699-1.577 6.802-0.391 13.815 3.322 19.765 3.714 5.919 9.519 10.047 16.332 11.612 1.957 0.457 3.948 0.694 5.907 0.694 12.249 0 22.719-8.379 25.47-20.337 1.588-6.847 0.414-13.883-3.3-19.802zM909.647 236.048c-2.808 12.161-14.946 19.756-27.061 16.948l-413.022-94.85c-3.122 11.253-7.273 22.002-12.541 32.015l350.144 80.43c20.036 4.576 37.105 16.757 48.069 34.277 10.961 17.506 14.452 38.179 9.855 58.213l-71.817 312.727c-1.354 5.828-4.945 10.895-10.024 14.083-5.056 3.165-11.164 4.194-17.014 2.863l-30.852-7.079c0.469 6.331 0.011 12.752-1.454 19.106l-54.591 237.71c-1.343 5.828-4.933 10.896-10.022 14.072-5.068 3.177-11.164 4.195-17.026 2.864l-356.623-81.895c-5.828-1.342-10.895-4.956-14.072-10.023-3.177-5.079-4.208-11.198-2.865-17.037l58.83-256.158-40.496-9.316c-12.147-2.797-19.731-14.9-16.946-27.038l65.663-285.969c-9.507 1.745-19.285 2.728-29.264 2.728-4.44 0-8.881-0.38-13.323-0.749l-135.657 590.552c-1.499 6.522-5.817 12.048-11.791 15.079l-122.972 62.342c-11.119 5.627-24.688 1.197-30.337-9.922-5.627-11.119-1.197-24.7 9.922-30.337l113.553-57.565 62.23-270.924-67.879-157.908c-1.891-4.405-2.338-9.296-1.275-13.97l51.29-223.371c-12.82-29.935-16.769-63.929-8.938-97.992 16.69-72.724 80.407-123.533 154.943-123.533 11.958 0 24.005 1.365 35.763 4.073 72.699 16.712 122.156 81.135 123.262 152.649l417.398 95.846c12.138 2.806 19.722 14.909 16.937 27.059zM607.635 486.22l-39.196 13.223c-8.567 2.874-18.009 0.403-24.016-6.344l-20.416-22.797-26.276 114.458 82.912 19.051 26.993-117.592zM525.551 805.391l-20.639 6.947c-8.57 2.886-18.022 0.403-24.030-6.343l-8.533-9.531-16.445 71.537 52.477 12.070 17.171-74.68zM327.764 838.58l84.143 19.33 26.198-114.034c1.891-8.211 8.21-14.688 16.366-16.791 1.868-0.48 3.748-0.715 5.627-0.715 6.319 0 12.472 2.662 16.812 7.516l27.675 30.942 44.758-15.090c2.36-0.794 4.811-1.186 7.214-1.186 0.068 0.011 0.157 0.011 0.225 0 12.461 0 22.562 10.101 22.562 22.574 0 2.841-0.514 5.537-1.477 8.043l-25.493 111.025 88.048 20.225 49.534-215.717c1.14-4.899 0.246-9.978-2.428-14.286-2.697-4.317-6.87-7.293-11.746-8.401l-294.225-67.577-53.794 234.143zM329.161 546.056l40.45 9.287c0.023 0.009 0.046 0.009 0.057 0.009l84.066 19.319 36.043-156.945c1.889-8.21 8.187-14.686 16.366-16.803 1.857-0.48 3.746-0.703 5.625-0.703 6.321 0 12.463 2.662 16.814 7.516l39.545 44.209 63.324-21.365c2.362-0.796 4.799-1.197 7.216-1.197 0.068 0.009 0.123 0.020 0.214 0 12.461 0 22.585 10.11 22.585 22.574 0 2.808-0.537 5.536-1.477 8.030l-35.337 153.96 129.693 29.789 66.783-290.734c1.902-8.29 0.448-16.88-4.116-24.164-4.551-7.282-11.621-12.338-19.888-14.229l-369.609-84.903c-9.353 9.116-19.779 17.037-31.109 23.602l-67.243 292.748zM205.25 498.704l53.952-234.869c-20.762-7.999-39.074-20.034-54.276-35.057l-40.282 175.459 40.607 94.467zM341.936 4.501c-8.435-1.946-17.071-2.931-25.65-2.931-53.371 0-98.988 36.377-110.947 88.485-14.072 61.256 24.307 122.514 85.554 136.597 0 0 0.011 0 0.023 0 8.422 1.946 17.037 2.931 25.605 2.931 33.537 0 64.009-14.375 84.994-37.99 0.637-0.883 1.308-1.723 2.059-2.505 11.33-13.489 19.731-29.744 23.916-48.001 14.049-61.235-24.319-122.525-85.554-136.586z" />
<glyph unicode="&#xe906;" glyph-name="ben-5" d="M131.279 863.138h-1.714c-13.083 0-23.695-10.59-23.695-23.684s10.601-23.684 23.695-23.684h1.714c13.083 0 23.684 10.59 23.684 23.684s-10.601 23.684-23.684 23.684zM355.95 863.138h-1.725c-13.071 0-23.685-10.59-23.685-23.684s10.601-23.684 23.685-23.684h1.725c13.071 0 23.695 10.59 23.695 23.684s-10.624 23.684-23.695 23.684zM243.618 863.138h-1.725c-13.071 0-23.695-10.59-23.695-23.684s10.613-23.684 23.695-23.684h1.725c13.073 0 23.685 10.59 23.685 23.684s-10.611 23.684-23.685 23.684zM327.854 449.477l-62.794 30.236c-11.786 5.64-25.929 0.712-31.613-11.064-5.673-11.784-0.722-25.938 11.053-31.611l62.795-30.249c3.328-1.59 6.812-2.335 10.263-2.335 8.809 0 17.267 4.941 21.361 13.409 5.673 11.786 0.722 25.94-11.064 31.613zM641.331 204.948h-593.963v526.867h814.113v-281.839c0-13.094 10.588-23.685 23.683-23.685s23.685 10.591 23.685 23.685l-0.023 497.105h-908.826v-789.49h641.331c13.082 0 23.695 10.591 23.695 23.683 0 13.094-10.614 23.675-23.695 23.675zM47.368 899.713h814.090v-120.507h-814.090v120.507zM159.078 350.797c0-9.103 5.222-17.403 13.41-21.35l212.626-102.382c3.249-1.59 6.779-2.358 10.276-2.358 3.438 0 6.812 0.97 9.981 2.47 0.1 0 0.202-0.159 0.292-0.113l212.649 102.382c8.2 3.948 13.399 12.247 13.399 21.35v228.099c0 0.215 0.090 0.407 0.090 0.622 0 9.101-5.222 17.4-13.409 21.348l-212.639 102.405c-6.484 3.113-14.029 3.136-20.526 0.013l-212.705-102.147c-0.71-0.338-1.241-0.868-1.906-1.262-0.147-0.092-0.293-0.125-0.44-0.215-0.226-0.136-0.372-0.338-0.586-0.484-1.365-0.914-2.617-1.907-3.744-3.069-0.338-0.348-0.62-0.732-0.936-1.116-0.981-1.162-1.917-2.312-2.65-3.633-0.349-0.607-0.575-1.262-0.857-1.905-0.541-1.185-1.116-2.358-1.455-3.633-0.383-1.421-0.508-2.908-0.632-4.408-0.034-0.543-0.237-1.060-0.237-1.613l0.011-0.090-0.011-0.113v-228.8zM553.418 579.584l-158.006-75.901-51.679 24.881 158.052 75.889 51.633-24.868zM206.458 541.916l165.247-79.59v-176.243l-165.247 79.59v176.243zM419.072 286.083v176.243l165.304 79.511v-176.187l-165.304-79.567zM395.456 655.654l51.689-24.891-158.042-75.889-51.687 24.891 158.040 75.889zM1017.162 219.553l-270.054 273.628c-6.766 6.835-16.983 8.911-25.882 5.256-8.899-3.653-14.697-12.349-14.674-21.957l1.083-384.507c0.023-9.405 5.617-17.91 14.244-21.652 3.046-1.321 6.249-1.964 9.441-1.964 5.862 0 11.648 2.179 16.125 6.328l89.28 82.916 86.356-198.979c3.878-8.945 12.585-14.28 21.742-14.28 3.149 0 6.351 0.643 9.418 1.964 12.001 5.222 17.503 19.162 12.303 31.173l-85.87 197.76 120.428 4.004c9.405 0.305 17.718 6.17 21.215 14.909 3.484 8.73 1.454 18.711-5.156 25.4zM844.337 221.402c-5.706-0.202-11.141-2.447-15.327-6.326l-74.166-68.854-0.742 272.435 191.355-193.884-101.12-3.372z" />
<glyph unicode="&#xe907;" glyph-name="ben-6" horiz-adv-x="1463" d="M1459.547 572.189c-3.844 8.046-10.748 14.248-19.182 17.229l-123.392 43.497v271.873c0 18.63-15.078 33.693-33.675 33.693h-1034.651c-11.041 0-21.349-5.358-27.652-14.379l-214.926-307.928c-8.094-11.595-8.094-26.983 0-38.58l214.926-307.829c6.302-9.022 16.61-14.38 27.652-14.38h41.282l838.764-280.507c13.433-4.736 27.209-6.967 40.744-6.967 50.809 0 98.472 31.609 116.304 82.041l175.206 496.443c2.966 8.452 2.461 17.701-1.401 25.794zM74.792 596.91l191.394 274.202h983.405v-492.762c0-14.72-5.782-28.643-16.369-39.179-10.584-10.584-24.572-16.417-39.391-16.417l-927.644 0.033-191.394 274.123zM1222.181 72.411c-10.225-28.891-42.225-44.017-71.636-33.777l-648.133 216.733h691.434c32.83 0 63.722 12.851 87.044 36.103 23.318 23.322 36.136 54.181 36.103 86.945v183.040l69.179-24.426-163.99-464.618zM392.389 464.578c0.717-0.033 1.467-0.062 2.198-0.062 72.744 0 131.972 59.242 132.005 132.833 0 35.224-13.696 68.347-38.579 93.263-24.605 24.639-57.176 38.335-92.058 38.676-0.75 0.033-2.15-0.228-2.183 0.065-72.708-0.098-131.919-59.293-131.968-131.972 0-0.374 0.033-1.058 0.065-1.694 0.195-34.916 13.858-67.695 38.578-92.465 24.574-24.558 57.127-38.254 91.942-38.645zM392.763 661.934c0.669-0.033 1.353-0.033 1.989-0.033 17.243 0 33.397-6.742 45.564-18.906 12.197-12.197 18.889-28.401 18.889-46.444-0.033-35.256-28.434-64.030-63.528-64.619-0.666 0.033-1.349 0.033-1.968 0.033-17.247 0-33.416 6.744-45.597 18.926-12.181 12.178-18.906 28.398-18.874 45.595 0 0.374-0.033 0.977-0.033 1.531 0.407 34.931 28.694 63.331 63.556 63.918zM713.044 432.304c8.613 0 17.243 3.288 23.823 9.867l285.213 285.213c13.125 13.158 13.125 34.507 0 47.665-13.177 13.125-34.509 13.125-47.682 0l-285.195-285.196c-13.144-13.173-13.144-34.505 0-47.682 6.579-6.579 15.225-9.867 23.841-9.867zM754.831 670.909c27.633 0 50.107 22.473 50.107 50.092 0 27.603-22.473 50.075-50.107 50.075-27.637 0-50.11-22.473-50.11-50.075 0-27.619 22.473-50.092 50.11-50.092zM947.507 548.33c-27.633 0-50.107-22.473-50.107-50.107 0-27.604 22.473-50.077 50.107-50.077 27.637 0 50.107 22.473 50.107 50.077 0 27.633-22.469 50.107-50.107 50.107z" />
<glyph unicode="&#xe908;" glyph-name="ben-7" horiz-adv-x="999" d="M863.389 527.148c-9.179 9.156-24.064 9.156-33.255 0l-110.857-110.824-179.772 179.729c0.939 6.861-1.054 14.059-6.214 19.431-8.964 9.401-23.829 9.726-33.233 0.739l-76.236-72.891c-9.056-9.076-25.14-9.076-34.262 0.022l-9.381 9.358c-9.446 9.446-9.446 24.838 0 34.262l63.948 63.948c1.444 0.894 2.797 1.946 4.064 3.189 1.241 1.241 2.293 2.62 3.189 4.064l12.94 12.917c9.054 9.076 25.16 9.076 34.239-0.022l12.435-12.37c4.633-5.115 25.185-25.687 55.641-26.841 15.11-0.659 37.823 3.649 61.148 26.999l62.112 62.11c9.156 9.179 9.156 24.065-0.022 33.255-9.156 9.179-24.044 9.156-33.233-0.022l-62.112-62.088c-8.809-8.831-17.316-13.297-25.273-13.297-0.202 0-0.37 0-0.572 0.022-12.703 0.325-22.8 11.349-22.8 11.349-0.415 0.482-0.849 0.964-1.309 1.399l-12.773 12.75c-13.397 13.42-31.307 20.807-50.368 20.807-19.039 0-36.926-7.365-50.301-20.73l-43.15 43.15c-9.179 9.156-24.066 9.156-33.255 0-9.179-9.179-9.179-24.065 0-33.255l43.15-43.15-50.94-50.938c-27.783-27.748-27.783-72.959 0-100.762l9.378-9.358c13.444-13.419 31.329-20.807 50.393-20.807 19.061 0 36.946 7.388 49.976 20.438l52.451 50.146 231.384-231.329c4.266-4.286 4.266-11.494 0-15.76l-6.032-6.054c-4.131-4.108-10.969-4.198-15.258-0.325-0.135 0.155-0.235 0.302-0.37 0.457l-53.368 53.403c-9.179 9.179-24.044 9.201-33.255 0.022-9.179-9.179-9.179-24.064 0-33.255l52.092-52.137c0.392-0.46 0.717-0.987 1.166-1.421 0.2-0.202 0.435-0.325 0.659-0.527 2.25-2.642 2.687-5.597 2.687-7.198 0-1.723-0.415-5.048-3.259-7.89l-6.032-6.034c-4.064-4.086-10.802-4.151-15.11-0.392-0.18 0.157-0.28 0.37-0.46 0.549l-44.796 44.774c-9.179 9.176-24.042 9.176-33.233 0-4.588-4.591-6.883-10.602-6.883-16.611 0-6.034 2.295-12.043 6.883-16.634l43.263-43.26c0.482-0.549 0.852-1.144 1.376-1.658 0.235-0.235 0.505-0.392 0.739-0.614 2.183-2.62 2.62-5.53 2.62-7.108 0-1.723-0.415-5.025-3.237-7.847l-6.054-6.054c-2.8-2.822-6.124-3.234-7.87-3.234-1.096 0-2.865 0.177-4.723 1.029-0.894 1.029-1.813 2.038-2.797 3l-41.36 40.206c-9.268 9.011-24.042 8.831-33.12-0.347-1.286-1.286-2.34-2.73-3.257-4.241-2.8 7.912-7.175 15.39-13.489 21.724l-6.032 6.012c-4.333 4.331-9.358 7.655-14.653 10.365 1.836 5.732 3.035 11.674 3.057 17.865 0 15.57-6.034 30.166-16.991 41.122l-6.079 6.102c-4.331 4.331-9.336 7.633-14.651 10.365 1.858 5.729 3.077 11.696 3.077 17.908 0 15.547-6.054 30.143-17.023 41.125l-6.034 6.009c-8.966 9.011-20.438 14.451-32.84 16.219-1.768 12.39-7.22 23.842-16.174 32.808l-6.079 6.077c-10.934 10.959-25.53 16.993-41.1 16.993-15.547 0-30.143-6.034-41.102-16.993l-39.129-39.129-96.911 96.853c-9.179 9.179-24.043 9.179-33.233 0s-9.178-24.064 0-33.243l96.91-96.865-18.76-18.759c-22.644-22.668-22.644-59.527 0-82.205l6.078-6.077c8.988-8.966 20.439-14.406 32.818-16.152 1.768-12.39 7.22-23.852 16.174-32.818l6.102-6.124c8.941-8.941 20.393-14.383 32.751-16.152 1.723-11.976 6.996-23.559 16.174-32.795l6.099-6.077c8.966-8.966 20.418-14.406 32.795-16.152 1.748-12.368 7.22-23.854 16.197-32.818l6.057-6.057c10.957-10.957 25.53-16.991 41.1-16.991 15.547 0 30.143 6.034 41.102 16.991l20.090 20.093 33.38-33.357c10.934-10.957 25.53-16.991 41.1-16.991 15.547 0 30.143 6.034 41.102 16.991l6.077 6.079c9.034 9.031 14.473 20.325 16.287 32.091 12.133 1.858 23.305 7.498 32.136 16.329l6.032 6.034c8.944 8.921 14.383 20.305 16.174 32.638 11.956 1.746 23.485 7.018 32.663 16.197l6.009 6.034c8.944 8.944 14.406 20.348 16.197 32.661 11.956 1.746 23.485 7.018 32.686 16.197l6.054 6.057c22.645 22.643 22.645 59.524 0 82.225l-21.267 21.267 110.857 110.834c9.223 9.189 9.223 24.076 0.067 33.255zM247.61 342.708l91.102 91.124c2.82 2.797 6.144 3.234 7.867 3.234 1.746 0 5.070-0.437 7.847-3.234l6.099-6.079c2.777-2.775 3.214-6.122 3.214-7.847 0-1.746-0.437-5.070-3.237-7.867l-91.056-91.101c-2.82-2.8-6.166-3.212-7.912-3.212s-5.070 0.412-7.847 3.189l-6.077 6.077c-4.265 4.266-4.265 11.451 0 15.717zM299.468 279.789c0 1.726 0.415 5.050 3.234 7.825l91.124 91.146c2.8 2.797 6.124 3.212 7.847 3.212s5.025-0.415 7.867-3.257l6.057-6.034c2.797-2.797 3.212-6.122 3.212-7.845 0-1.746-0.415-5.070-3.234-7.892l-91.168-91.168c-2.797-2.73-6.077-3.144-7.78-3.144-1.746 0-5.093 0.415-7.845 3.167l-6.102 6.124c-2.797 2.797-3.212 6.122-3.212 7.867zM357.683 232.555l70.796 70.796c2.777 2.777 6.102 3.189 7.825 3.189s5.048-0.412 7.847-3.189l6.077-6.099c2.8-2.8 3.212-6.146 3.212-7.87s-0.412-5.025-3.212-7.825l-70.673-70.716c-2.82-2.822-6.144-3.237-7.89-3.237s-5.073 0.415-7.87 3.214l-6.054 6.054c-4.276 4.243-4.276 11.416-0.057 15.682zM434.568 155.77c-2.797-2.8-6.144-3.212-7.867-3.212-1.746 0-5.070 0.412-7.87 3.212l-6.054 6.054c-2.822 2.8-3.237 6.146-3.237 7.87s0.415 5.048 3.237 7.87l50.301 50.323c2.8 2.797 6.124 3.212 7.847 3.212 1.746 0 5.070-0.415 7.912-3.279l6.034-5.989c4.263-4.286 4.263-11.494 0.022-15.737l-50.326-50.323zM576.297 148.585l-6.079-6.079c-2.797-2.797-6.122-3.234-7.845-3.234-1.726 0-5.073 0.437-7.847 3.234l-33.692 33.67c7.365 8.529 11.876 18.602 13.444 29.147 0.235-0.257 0.415-0.569 0.682-0.807l40.778-40.753c0.894-0.897 1.813-1.768 2.752-2.597 1.881-4.131 1.154-9.268-2.193-12.58zM62.811 328.19c-52.003 193.474 27.356 394.814 197.457 500.992 194.483 121.378 446.372 76.427 588.38-95.992l-72.017 16.655c-12.615 2.977-25.275-4.936-28.185-17.596-2.932-12.659 4.935-25.275 17.595-28.207l133.030-30.757c1.791-0.415 3.559-0.617 5.317-0.617 10.69 0 20.373 7.343 22.89 18.212l30.815 133.041c2.932 12.659-4.935 25.274-17.595 28.207-12.593 2.977-25.275-4.936-28.207-17.596l-18.927-81.744c-155.094 198.913-439.421 252.707-658.001 116.274-187.765-117.226-275.362-339.488-217.953-553.064 2.821-10.5 12.312-17.428 22.689-17.428 2.015 0 4.063 0.257 6.1 0.807 12.547 3.392 19.98 16.264 16.611 28.812zM980.782 580.014c-3.482 12.48-16.464 19.766-28.967 16.287-12.503-3.504-19.813-16.466-16.309-28.969 53.782-191.95-26.909-399.865-196.226-505.584-194.505-121.354-446.372-76.358-588.38 96.061l71.949-16.656c12.637-2.955 25.274 4.938 28.207 17.595 2.932 12.638-4.936 25.275-17.596 28.207l-133.042 30.792c-6.033 1.399-12.436 0.325-17.752-2.977-5.294-3.302-9.055-8.574-10.454-14.631l-30.759-133.040c-2.933-12.66 4.936-25.298 17.596-28.207 1.791-0.415 3.559-0.614 5.317-0.614 10.689 0 20.371 7.34 22.89 18.21l18.972 82.067c96.888-124.389 244.111-192.297 394.425-192.275 90.227 0 181.518 24.401 263.52 75.576 186.925 116.711 275.988 346.237 216.608 558.157z" />
<glyph unicode="&#xe909;" glyph-name="bin" horiz-adv-x="975" d="M926.476 757.867h-243.81v81.432c-1.146 31.216-14.619 60.706-37.469 82.003-22.855 21.298-53.219 32.666-84.436 31.612h-146.286c-31.22 1.054-61.583-10.314-84.435-31.612s-36.326-50.787-37.47-82.003v-81.432h-243.81c-12.932 0-25.335-5.138-34.48-14.282s-14.282-21.547-14.282-34.48c0-12.932 5.137-25.335 14.282-34.48s21.547-14.282 34.48-14.282h48.762v-536.381c0-38.795 15.412-76.005 42.846-103.439s64.642-42.847 103.44-42.847h487.619c38.795 0 76.005 15.414 103.439 42.847s42.847 64.644 42.847 103.439v536.381h48.762c12.932 0 25.337 5.138 34.48 14.282s14.282 21.548 14.282 34.48c0 12.933-5.14 25.335-14.282 34.48s-21.548 14.282-34.48 14.282zM390.095 839.3c0 7.802 10.24 16.091 24.381 16.091h146.286c14.141 0 24.381-8.29 24.381-16.091v-81.432h-195.048v81.432zM780.19 123.963c0-12.932-5.14-25.337-14.282-34.48s-21.548-14.282-34.48-14.282h-487.619c-12.933 0-25.335 5.14-34.48 14.282s-14.282 21.548-14.282 34.48v536.381h585.143v-536.381zM341.333 221.486c12.933 0 25.335 5.14 34.48 14.282 9.144 9.148 14.282 21.548 14.282 34.48v195.048c0 12.935-5.138 25.337-14.282 34.482s-21.547 14.282-34.48 14.282c-12.933 0-25.335-5.138-34.48-14.282s-14.282-21.547-14.282-34.482v-195.048c0-12.932 5.138-25.332 14.282-34.48 9.145-9.143 21.547-14.282 34.48-14.282zM633.905 221.486c12.932 0 25.337 5.14 34.48 14.282 9.143 9.148 14.282 21.548 14.282 34.48v195.048c0 12.935-5.14 25.337-14.282 34.482s-21.548 14.282-34.48 14.282c-12.932 0-25.337-5.138-34.48-14.282s-14.282-21.547-14.282-34.482v-195.048c0-12.932 5.14-25.332 14.282-34.48 9.143-9.143 21.548-14.282 34.48-14.282z" />
<glyph unicode="&#xe90a;" glyph-name="burger" horiz-adv-x="1536" d="M81.067 960h1373.867c44.774 0 81.067-36.295 81.067-81.067v-8.533c0-44.772-36.292-81.067-81.067-81.067h-1373.867c-44.772 0-81.067 36.295-81.067 81.067v8.533c0 44.772 36.295 81.067 81.067 81.067zM1454.933 533.333h-1373.867c-44.772 0-81.067-36.295-81.067-81.067v-8.533c0-44.772 36.295-81.067 81.067-81.067h1373.867c44.774 0 81.067 36.295 81.067 81.067v8.533c0 44.772-36.292 81.067-81.067 81.067zM1454.933 106.667h-1373.867c-44.772 0-81.067-36.292-81.067-81.067v-8.533c0-44.774 36.295-81.067 81.067-81.067h1373.867c44.774 0 81.067 36.292 81.067 81.067v8.533c0 44.774-36.292 81.067-81.067 81.067z" />
<glyph unicode="&#xe90b;" glyph-name="cart-add" horiz-adv-x="1195" d="M989.867 447.993c-34.133 0-68.267 11.378-96.711 28.444l-73.956-142.221h-432.356l-96.711 341.332h420.978c-5.689 17.067-11.378 39.822-11.378 56.889s5.689 39.822 11.378 56.889h-455.111l-28.444 130.844c-5.689 11.378-11.378 22.756-22.756 28.444-5.689 5.689-22.756 11.378-34.133 11.378h-113.778c-17.067 0-28.444-5.689-39.822-17.067s-17.067-22.756-17.067-39.822c0-17.067 5.689-28.444 17.067-39.822s22.756-17.067 39.822-17.067h68.267l159.289-585.954c5.689-11.378 11.378-22.756 22.756-28.444 5.689-5.689 22.756-11.378 34.133-11.378h512c11.378 0 22.756 0 28.444 11.378 11.378 5.689 17.067 11.378 22.756 22.756l96.711 193.421c-5.689 0-5.689 0-11.378 0zM312.889-64.006c45.511 0 85.333 39.822 85.333 85.333s-39.822 85.333-85.333 85.333c-45.511 0-85.333-39.822-85.333-85.333s39.822-85.333 85.333-85.333zM967.111 21.328c0-45.511-39.822-85.333-85.333-85.333s-85.333 39.822-85.333 85.333c0 45.511 39.822 85.333 85.333 85.333s85.333-39.822 85.333-85.333zM1160.533 732.438c0-28.444-28.444-56.889-56.889-56.889h-56.889v-56.889c0-28.444-28.444-56.889-56.889-56.889s-56.889 28.444-56.889 56.889v56.889h-56.889c-28.444 0-56.889 28.444-56.889 56.889s28.444 56.889 56.889 56.889h56.889v56.889c0 28.444 28.444 56.889 56.889 56.889s56.889-28.444 56.889-56.889v-56.889h56.889c28.444 0 56.889-28.444 56.889-56.889z" />
<glyph unicode="&#xe90c;" glyph-name="cart" horiz-adv-x="1078" d="M1028.312 738.86c-9.313 16.135-22.647 29.581-38.707 39.027-16.055 9.446-34.288 14.568-52.914 14.868h-689.853l-31.259 121.802c-3.158 11.758-10.204 22.1-19.991 29.342s-21.737 10.957-33.904 10.54h-107.789c-14.294 0-28.002-5.678-38.109-15.785s-15.785-23.816-15.785-38.11c0-14.293 5.678-28.002 15.785-38.109s23.816-15.786 38.109-15.786h66.829l148.749-552.961c3.158-11.754 10.204-22.097 19.991-29.34s21.737-10.957 33.904-10.542h485.053c9.954 0.032 19.704 2.819 28.171 8.046 8.467 5.233 15.317 12.708 19.796 21.596l176.775 353.55c7.664 16.060 11.226 33.767 10.38 51.541s-6.079 35.062-15.231 50.32zM775.006 361.596h-410.678l-87.848 323.369h660.211l-161.684-323.369zM296.421-15.667c44.648 0 80.842 36.196 80.842 80.842s-36.194 80.842-80.842 80.842c-44.648 0-80.842-36.196-80.842-80.842s36.194-80.842 80.842-80.842zM916.211 65.175c0-44.646-36.196-80.842-80.842-80.842s-80.842 36.196-80.842 80.842c0 44.646 36.196 80.842 80.842 80.842s80.842-36.196 80.842-80.842z" />
<glyph unicode="&#xe90d;" glyph-name="close" d="M947.2-0.864c-51.2-51.2-134.4-51.2-185.6 0l-268.8 268.8-268.8-268.8c-51.2-51.2-134.4-51.2-185.6 0s-51.2 134.4 0 185.6l268.8 268.801-262.4 262.4c-51.2 51.2-51.2 134.4 0 185.6s134.4 51.2 185.6 0l268.8-268.8 268.8 268.8c51.2 51.2 134.4 51.2 185.6 0s51.2-134.4 0-185.6l-268.8-268.8 268.8-268.801c51.2-44.8 51.2-128-6.4-179.2z" />
<glyph unicode="&#xe90e;" glyph-name="facebook" horiz-adv-x="640" d="M371.2-27.473h-153.6c-17.067 0-34.133 8.533-46.933 21.333s-21.333 29.867-21.333 46.933v290.133h-85.333c-17.067 0-34.133 8.533-46.933 21.333-8.533 12.8-17.067 29.867-17.067 46.933v128c0 17.065 8.533 34.132 21.333 46.932s29.867 21.333 46.933 21.333h85.333v89.6c4.267 76.8 38.4 145.067 93.867 196.267s128 76.8 204.8 72.533h123.733c17.067 0 34.133-8.533 46.933-21.333 8.533-12.8 17.067-29.867 17.067-46.933v-128c0-17.067-8.533-34.133-21.333-46.933s-29.867-21.333-46.933-21.333h-128c-4.267 0-4.267 0-4.267 0s0 0 0-4.267v-89.6h128c8.533 0 21.333-4.267 29.867-8.533s17.067-12.8 25.6-21.333c8.533-8.533 12.8-17.067 12.8-29.867 0-8.532 0-21.332 0-29.865l-38.4-128c-4.267-12.8-12.8-25.6-25.6-34.133s-25.6-12.8-42.667-12.8h-89.6v-290.133c0-17.067-8.533-34.133-21.333-46.933s-29.867-21.333-46.933-21.333zM234.667 57.86h115.2v358.4h162.133l25.6 93.867h-183.467v179.199c4.267 21.333 12.8 42.667 29.867 59.733s38.4 25.6 64 25.6h106.667v93.867h-106.667c-55.467 0-106.667-17.067-145.067-51.2s-64-81.067-68.267-132.267v-174.932h-149.333v-93.867h149.333v-358.4z" />
<glyph unicode="&#xe90f;" glyph-name="instagram" horiz-adv-x="983" d="M491.52 683.712c-139.264 0-253.952-114.688-253.952-253.952s114.688-253.952 253.952-253.952c139.264 0 253.952 114.688 253.952 253.952s-114.688 253.952-253.952 253.952zM663.552 429.761c0-94.208-77.824-172.032-172.032-172.032s-172.032 77.824-172.032 172.032c0 94.208 77.824 172.032 172.032 172.032s172.032-77.824 172.032-172.032zM729.088 921.28h-475.136c-139.264 0-253.952-114.688-253.952-253.952v-471.040c0-143.36 114.688-258.048 253.952-258.048h471.040c139.264 0 253.952 114.688 253.952 253.952v475.136c4.096 139.264-110.592 253.952-249.856 253.952zM901.12 667.328v-471.040c0-94.208-77.824-172.032-172.032-172.032h-475.136c-94.208-4.096-172.032 73.728-172.032 167.936v475.136c0 94.208 77.824 172.032 172.032 172.032h471.040c98.304 0 176.128-77.824 176.128-172.032zM761.856 777.92c-45.056 0-81.92-36.864-81.92-81.92s36.864-81.92 81.92-81.92c45.056 0 81.92 36.864 81.92 81.92s-40.96 81.92-81.92 81.92zM790.528 700.096c0-16.384-12.288-28.672-28.672-28.672s-28.672 12.288-28.672 28.672c0 16.384 12.288 28.672 28.672 28.672s28.672-12.288 28.672-28.672z" />
<glyph unicode="&#xe910;" glyph-name="magnifier" d="M954.476 75.194l-183.242 182.703c59.123 75.318 91.201 168.331 91.082 264.083 0 85.275-25.287 168.635-72.661 239.538-47.379 70.903-114.715 126.166-193.498 158.799-78.785 32.633-165.477 41.172-249.113 24.535s-160.461-57.7-220.76-117.999c-60.299-60.299-101.362-137.123-117.999-220.76s-8.098-170.328 24.535-249.112c32.633-78.783 87.896-146.119 158.799-193.498 70.903-47.373 154.263-72.661 239.538-72.661 95.753-0.119 188.766 31.96 264.084 91.082l182.703-183.242c5.012-5.050 10.973-9.060 17.537-11.798 6.57-2.738 13.614-4.145 20.728-4.145s14.158 1.407 20.728 4.145c6.564 2.738 12.525 6.748 17.537 11.798 5.050 5.012 9.060 10.973 11.798 17.537 2.738 6.57 4.145 13.614 4.145 20.728s-1.407 14.158-4.145 20.728c-2.738 6.564-6.748 12.525-11.798 17.537zM107.789 521.98c0 63.956 18.966 126.476 54.498 179.654s86.035 94.625 145.123 119.099c59.088 24.475 124.107 30.879 186.834 18.402 62.725-12.477 120.344-43.275 165.567-88.499 45.228-45.224 76.024-102.843 88.501-165.57s6.074-127.746-18.4-186.833c-24.474-59.090-65.924-109.59-119.102-145.122s-115.696-54.498-179.653-54.498c-85.763 0-168.013 34.067-228.656 94.715-60.643 60.642-94.712 142.89-94.712 228.653z" />
<glyph unicode="&#xe911;" glyph-name="mail" horiz-adv-x="1170" d="M994.743 952.496h-819.2c-46.557 0-91.207-18.784-124.128-52.219s-51.415-78.782-51.415-126.067v-594.286c0-47.287 18.495-92.635 51.415-126.069s77.571-52.217 124.128-52.217h819.2c46.555 0 91.209 18.783 124.131 52.217 32.914 33.434 51.412 78.782 51.412 126.069v594.286c0 47.285-18.498 92.632-51.412 126.067-32.922 33.435-77.575 52.219-124.131 52.219zM994.743 833.638l-380.343-265.646c-8.895-5.216-18.986-7.962-29.257-7.962s-20.362 2.746-29.257 7.962l-380.343 265.646h819.2z" />
<glyph unicode="&#xe912;" glyph-name="phone-call" horiz-adv-x="970" d="M533.558 661.213c38.594 0 75.604-15.331 102.896-42.62 27.287-27.289 42.62-64.302 42.62-102.895 0-12.864 5.109-25.202 14.207-34.298s21.434-14.207 34.299-14.207c12.865 0 25.201 5.111 34.299 14.207s14.207 21.434 14.207 34.298c0 64.322-25.551 126.010-71.033 171.493s-107.17 71.034-171.493 71.034c-12.865 0-25.202-5.11-34.299-14.207s-14.207-21.434-14.207-34.299c0-12.864 5.11-25.202 14.207-34.298s21.434-14.207 34.299-14.207zM533.558 855.233c90.053 0 176.414-35.773 240.090-99.448 63.671-63.676 99.447-150.038 99.447-240.089 0-12.864 5.109-25.202 14.207-34.299s21.434-14.207 34.299-14.207c12.865 0 25.201 5.11 34.299 14.207s14.207 21.434 14.207 34.299c0 115.779-45.994 226.817-127.86 308.686-81.871 81.868-192.905 127.861-308.687 127.861-12.865 0-25.202-5.11-34.299-14.207s-14.207-21.434-14.207-34.298c0-12.864 5.11-25.202 14.207-34.299s21.434-14.207 34.299-14.207zM957.979 277.536c-2.668 7.788-7.276 14.767-13.382 20.281-6.112 5.519-13.522 9.388-21.542 11.248l-291.032 66.452c-7.901 1.789-16.12 1.574-23.918-0.625-7.793-2.204-14.913-6.327-20.706-11.986-6.791-6.306-7.276-6.791-38.804-66.937-104.616 48.209-188.443 132.377-236.221 237.19 61.602 31.043 62.087 31.043 68.392 38.319 5.661 5.794 9.781 12.913 11.984 20.708s2.418 16.017 0.627 23.917l-66.452 287.636c-1.86 8.018-5.731 15.431-11.246 21.541s-12.495 10.715-20.282 13.383c-11.328 4.046-23.025 6.97-34.924 8.731-12.259 2.843-24.77 4.467-37.349 4.851-59.176 0-115.929-23.508-157.773-65.352s-65.352-98.596-65.352-157.773c0.257-198.033 79.039-387.879 219.069-527.909 140.030-140.035 329.881-218.813 527.912-219.071 29.303 0 58.314 5.772 85.385 16.982 27.071 11.215 51.669 27.648 72.386 48.371 20.723 20.717 37.155 45.315 48.371 72.386 11.21 27.071 16.982 56.083 16.982 85.385 0.016 12.347-0.959 24.673-2.91 36.864-2.037 12.045-5.12 23.897-9.216 35.409zM746.981 79.15c-172.345 0.129-337.591 68.651-459.457 190.513-121.865 121.867-190.385 287.113-190.514 459.457 0.128 33.408 13.456 65.412 37.079 89.035s55.626 36.951 89.035 37.079h16.007l51.901-225.064-26.193-13.581c-41.715-21.827-74.698-39.289-57.236-77.123 28.435-80.498 74.444-153.653 134.686-214.144s133.202-106.809 213.582-135.578c40.744-16.492 56.751 14.067 78.579 56.266l14.067 26.678 224.579-51.416v-16.007c-0.129-33.409-13.458-65.412-37.080-89.034s-55.625-36.95-89.034-37.080z" />
<glyph unicode="&#xe913;" glyph-name="phone" horiz-adv-x="964" d="M740.617-12.427c-196.345 0.259-384.576 78.523-523.414 217.636s-216.949 327.717-217.203 524.453c0 58.788 23.307 115.169 64.795 156.739s97.756 64.923 156.428 64.923c12.424 0.095 24.828-1.035 37.031-3.373 11.798-1.749 23.395-4.654 34.626-8.674 7.899-2.777 14.938-7.572 20.42-13.91s9.219-14.001 10.84-22.23l65.886-289.125c1.776-7.848 1.562-16.017-0.622-23.76s-6.269-14.817-11.882-20.572c-6.252-6.746-6.732-7.228-65.886-38.068 47.37-104.126 130.484-187.747 234.208-235.634 31.26 59.747 31.741 60.229 38.474 66.496 5.744 5.624 12.802 9.717 20.528 11.906 7.734 2.188 15.884 2.403 23.715 0.623l288.551-66.014c7.951-1.849 15.3-5.692 21.359-11.174s10.626-12.414 13.27-20.149c4.060-11.439 7.114-23.209 9.138-35.177 1.934-12.113 2.897-24.359 2.885-36.623-0.885-58.537-24.847-114.345-66.656-155.244s-98.063-63.56-156.491-63.048z" />
<glyph unicode="&#xe914;" glyph-name="pin" horiz-adv-x="819" d="M409.6 960c-107.927 0.005-211.494-42.586-288.193-118.517s-120.328-179.065-121.407-286.987c0-280.576 360.96-592.896 376.32-606.208 9.274-7.931 21.076-12.293 33.28-12.293s24.006 4.362 33.28 12.293c17.92 13.312 376.32 325.632 376.32 606.208-1.080 107.921-44.708 211.056-121.405 286.987-76.703 75.931-180.27 118.523-288.195 118.517zM409.6 396.8c-35.442 0-70.089 10.511-99.558 30.203-29.469 19.686-52.438 47.676-66.001 80.42s-17.112 68.775-10.198 103.537c6.915 34.761 23.982 66.692 49.043 91.753s56.992 42.129 91.753 49.043c34.762 6.915 70.793 3.366 103.537-10.198s60.734-36.532 80.42-66.001c19.692-29.47 30.203-64.116 30.203-99.558 0-47.527-18.877-93.107-52.485-126.713-33.608-33.609-79.188-52.487-126.715-52.487z" />
</font>
</defs>
</svg>
