<?xml version="1.0" standalone="no"?>
<!DOCTYPE svg PUBLIC "-//W3C//DTD SVG 20010904//EN"
 "http://www.w3.org/TR/2001/REC-SVG-20010904/DTD/svg10.dtd">
<svg version="1.0" xmlns="http://www.w3.org/2000/svg"
 width="260.000000pt" height="260.000000pt" viewBox="0 0 260.000000 260.000000"
 preserveAspectRatio="xMidYMid meet">
<metadata>
Created by potrace 1.11, written by Peter Selinger 2001-2013
</metadata>
<g transform="translate(0.000000,260.000000) scale(0.100000,-0.100000)"
fill="#000000" stroke="none">
<path d="M280 2581 c-126 -40 -216 -130 -259 -259 -21 -60 -21 -75 -21 -1020
0 -848 2 -965 16 -1013 38 -129 130 -224 262 -268 60 -21 77 -21 1020 -21 848
0 965 2 1013 16 129 38 224 130 268 262 21 60 21 77 21 1020 0 848 -2 965 -16
1013 -38 129 -130 224 -262 268 -60 21 -77 21 -1024 20 -892 0 -967 -1 -1018
-18z m1177 -335 c82 -22 138 -53 182 -101 27 -30 52 -46 75 -51 53 -9 137 -64
168 -109 16 -22 34 -67 41 -100 9 -44 22 -69 46 -94 44 -47 70 -101 83 -172 9
-54 14 -62 59 -95 27 -20 62 -57 77 -82 23 -41 27 -57 26 -127 0 -66 -7 -99
-37 -185 -35 -97 -38 -115 -41 -235 -2 -101 -8 -145 -26 -200 -61 -191 -189
-362 -334 -449 l-59 -35 -45 50 c-58 65 -175 122 -377 184 -300 92 -392 133
-521 231 -125 95 -217 240 -247 389 -9 44 -26 87 -45 116 -17 25 -43 81 -58
125 -24 68 -28 95 -28 194 -1 126 12 192 54 285 62 137 180 250 315 302 39 15
84 39 101 53 68 58 163 99 276 120 70 12 249 4 315 -14z"/>
<path d="M1420 2010 c32 -14 60 -40 60 -56 0 -21 -30 -44 -59 -44 -15 0 -45 9
-66 21 -78 41 -146 59 -222 59 -122 0 -172 -34 -181 -120 -4 -46 -2 -52 31
-85 19 -19 40 -35 46 -35 6 0 2 9 -9 20 -11 11 -20 33 -20 50 0 85 115 95 188
17 l24 -25 -29 -18 c-114 -71 -172 -197 -144 -311 16 -61 50 -106 107 -139
103 -61 190 -53 309 28 42 28 78 48 82 44 3 -3 1 -6 -5 -6 -20 0 -52 -63 -52
-102 0 -76 105 -151 215 -152 72 -1 147 25 175 61 22 29 27 101 9 134 -6 11
-31 34 -57 51 -29 19 -38 28 -22 23 51 -15 157 -17 181 -4 17 9 12 -1 -18 -34
-38 -41 -43 -52 -43 -92 0 -94 89 -128 156 -61 31 31 34 40 34 90 0 71 -14 93
-99 153 -64 45 -191 160 -191 172 0 3 20 7 45 7 36 1 45 -2 45 -15 0 -9 -5
-22 -11 -28 -9 -9 -3 -17 21 -32 43 -26 54 -18 46 31 -10 61 -33 97 -102 164
-35 34 -64 67 -64 73 0 17 28 13 39 -6 9 -16 10 -16 11 4 0 35 -36 51 -112 50
-61 -1 -69 2 -102 31 -54 47 -130 82 -189 88 -43 4 -48 3 -27 -6z m100 -320
c30 -1 38 -6 60 -43 l26 -42 -78 -3 c-76 -3 -80 -2 -109 27 -17 17 -38 31 -46
31 -23 0 -10 10 34 26 21 7 47 12 58 9 11 -3 36 -5 55 -5z"/>
<path d="M1430 1647 c0 -14 40 -37 64 -37 6 0 21 7 32 16 18 15 17 15 -13 10
-21 -3 -35 0 -43 9 -16 19 -40 19 -40 2z"/>
<path d="M1866 1628 c3 -5 10 -6 15 -3 13 9 11 12 -6 12 -8 0 -12 -4 -9 -9z"/>
<path d="M1813 1151 c-49 -23 -73 -62 -73 -121 0 -46 21 -94 45 -104 8 -3 26
-1 39 4 31 11 46 -5 53 -60 3 -22 8 -40 12 -40 3 0 28 17 55 38 86 65 118 161
76 230 -42 69 -124 90 -207 53z"/>
</g>
</svg>
