<?xml version="1.0" standalone="no"?>
<!DOCTYPE svg PUBLIC "-//W3C//DTD SVG 20010904//EN"
 "http://www.w3.org/TR/2001/REC-SVG-20010904/DTD/svg10.dtd">
<svg version="1.0" xmlns="http://www.w3.org/2000/svg"
 width="700.000000pt" height="700.000000pt" viewBox="0 0 700.000000 700.000000"
 preserveAspectRatio="xMidYMid meet">
<metadata>
Created by potrace 1.11, written by Peter Selinger 2001-2013
</metadata>
<g transform="translate(0.000000,700.000000) scale(0.100000,-0.100000)"
fill="#000000" stroke="none">
<path d="M1566 6989 c-46 -11 -141 -61 -176 -92 -55 -49 -101 -119 -174 -264
-42 -84 -79 -153 -84 -153 -4 0 -81 75 -172 166 -274 276 -298 295 -431 329
-93 25 -221 16 -292 -19 -77 -37 -151 -115 -195 -205 l-37 -76 -2 -1315 c-2
-1090 0 -1324 11 -1366 41 -153 159 -267 318 -309 80 -22 2591 -21 2672 0 120
31 216 101 275 200 65 108 62 34 62 1430 0 699 -3 1293 -6 1320 -14 120 -109
252 -220 305 -180 86 -375 45 -545 -115 -30 -28 -93 -87 -140 -131 -46 -43
-118 -111 -159 -151 -42 -39 -76 -71 -77 -70 -1 1 -39 76 -85 166 -60 118 -97
179 -135 220 -52 56 -124 104 -187 122 -48 15 -177 19 -221 8z m135 -378 c4
-1 143 -272 309 -603 167 -332 448 -892 626 -1245 178 -353 324 -654 324 -668
l0 -25 -287 0 c-1793 -2 -2267 1 -2279 11 -11 9 48 133 305 643 175 347 455
903 621 1236 167 333 311 617 321 632 11 15 26 25 37 23 9 -2 20 -4 23 -4z
m-1006 -265 l242 -243 -72 -149 c-238 -492 -475 -974 -479 -974 -1 0 -3 360
-3 801 0 861 -1 845 49 818 11 -6 129 -120 263 -253z m2236 247 c12 -13 14
-153 14 -815 0 -439 -2 -798 -5 -797 -7 1 -555 1105 -555 1118 0 6 110 123
244 261 250 257 270 272 302 233z"/>
<path d="M3910 6986 c-67 -19 -120 -49 -178 -101 -115 -104 -161 -261 -118
-407 9 -30 171 -367 360 -749 l345 -694 -328 -325 c-181 -179 -339 -340 -351
-358 -57 -85 -77 -207 -54 -321 31 -150 156 -273 319 -316 52 -13 221 -15
1337 -15 847 0 1292 3 1323 10 166 37 308 189 335 355 5 36 8 584 7 1375 l-2
1315 -33 67 c-38 78 -92 129 -166 157 -50 19 -86 20 -1401 20 -1047 -1 -1360
-4 -1395 -13z m2579 -384 c7 -12 9 -455 8 -1250 -1 -814 1 -1233 8 -1235 6 -2
5 -10 -3 -20 -12 -14 -132 -16 -1254 -15 -701 0 -1251 4 -1265 9 -15 5 -23 17
-23 32 0 17 275 297 1131 1148 622 618 1182 1175 1244 1237 62 61 120 112 129
112 8 0 20 -8 25 -18z m-593 -1 c2 -1 -577 -577 -986 -980 l-315 -310 -312
625 c-172 343 -313 631 -313 639 0 9 9 19 19 23 15 5 1900 9 1907 3z"/>
<path d="M3985 3432 c-99 -9 -192 -49 -261 -114 -48 -45 -107 -154 -123 -225
-14 -68 -11 -2602 4 -2665 18 -78 49 -131 111 -193 67 -66 157 -112 239 -123
33 -4 623 -7 1310 -6 1004 0 1261 3 1305 14 285 69 422 369 290 631 -21 41
-61 83 -357 372 -73 72 -116 120 -109 125 6 3 76 39 156 80 181 91 210 112
272 194 96 125 110 287 37 435 -49 101 -131 171 -287 247 -37 18 -95 47 -129
64 l-62 32 214 215 c191 192 218 223 249 288 44 92 56 152 52 253 -5 106 -29
158 -108 238 -71 70 -165 122 -243 132 -46 7 -2492 12 -2560 6z m2518 -409 c9
-9 17 -22 17 -29 0 -19 -2486 -2504 -2504 -2504 -42 0 -41 -20 -41 1284 0
1047 2 1248 14 1255 7 5 572 9 1255 9 1113 0 1243 -1 1259 -15z m-93 -1170
c89 -41 120 -67 113 -94 -4 -14 -87 -60 -287 -161 -154 -77 -463 -233 -686
-345 -376 -190 -402 -202 -365 -163 86 89 438 447 666 677 l240 241 122 -60
c67 -33 156 -76 197 -95z m100 -1319 c0 -12 -6 -24 -13 -27 -14 -5 -1597 -7
-1597 -2 0 2 181 93 403 202 221 110 470 234 552 275 l150 75 253 -251 c173
-173 252 -258 252 -272z"/>
<path d="M340 3416 c-153 -32 -279 -150 -324 -306 -14 -48 -16 -192 -14 -1380
l3 -1325 32 -68 c36 -76 116 -163 181 -196 98 -50 59 -49 1434 -49 708 0 1309
4 1335 9 109 20 232 107 289 205 80 136 73 319 -17 450 -42 62 -2567 2582
-2614 2609 -92 53 -203 72 -305 51z m600 -1751 c294 -583 544 -1080 556 -1105
16 -32 20 -48 12 -57 -8 -11 -124 -13 -561 -11 l-551 3 -1 1110 c-1 611 1
1114 3 1118 2 5 5 7 7 5 1 -2 242 -480 535 -1063z m1028 -148 c532 -532 969
-970 971 -972 2 -2 -4 -16 -13 -30 l-16 -25 -508 0 -507 0 -17 87 c-16 81 -50
153 -496 1046 -460 921 -477 957 -430 910 27 -26 484 -484 1016 -1016z"/>
</g>
</svg>
