<svg width="53px" height="53px" viewBox="0 0 53 53" version="1.1" xmlns="http://www.w3.org/2000/svg" xmlns:xlink="http://www.w3.org/1999/xlink">
    <g id="Page-1" stroke="none" stroke-width="1" fill="none" fill-rule="evenodd">
        <g id="Logo-Wyle" fill="#FFFFFF" fill-rule="nonzero">
            <path d="M48.3,43.6 L50.5,42.5 C51.6,41.9 52.3,40.8 52.3,39.6 C52.3,38.4 51.6,37.3 50.5,36.7 L48.3,35.6 L51.2,32.7 C52.2,31.7 52.5,30 52,28.8 C51.4,27.8 50.3,27 49,27 L30.4,27 C28.6,27 27.2,28.4 27.2,30.3 L27.2,49 C27.2,49.9 27.5,50.7 28.2,51.3 C28.8,51.9 29.6,52.2 30.5,52.2 C30.5,52.2 30.5,52.2 30.5,52.2 L48.9,52.2 C50.3,52.2 51.6,51.4 52.1,50.1 C52.6,48.9 52.3,47.5 51.4,46.6 L48.3,43.6 Z M45.5,45 L49.2,48.7 C49.3,48.8 49.3,49 49.3,49 L49.3,49 C49.3,49.1 49.2,49.2 49,49.2 L37,49.2 L45.5,45 Z M38.9,45.1 L46.1,37.8 L49.2,39.3 C49.2,39.3 49.4,39.4 49.4,39.6 C49.4,39.8 49.3,39.8 49.2,39.9 L38.9,45.1 Z M49.3,30.5 L30.6,49.2 C30.5,49.3 30.4,49.3 30.3,49.3 L30.3,49.3 C30.2,49.2 30.1,49.1 30.1,49 L30.1,30.3 C30.1,30.1 30.2,30 30.4,30 L49,30 C49.2,30 49.3,30.1 49.3,30.2 C49.4,30.3 49.4,30.4 49.3,30.5 Z" id="Shape"></path>
            <path d="M3.3,25.2 L22,25.2 C23.8,25.2 25.3,23.7 25.3,22 L25.3,3.3 C25.3,2 24.6,0.9 23.5,0.4 C22.3,-0.2 20.6,0.2 19.6,1.2 L16.6,4 L15.5,1.8 C14.9,0.7 13.8,0 12.6,0 C11.4,0 10.3,0.7 9.7,1.8 L8.6,4 L5.7,1.1 C4.7,0.1 3,-0.2 1.8,0.3 C0.7,0.9 0,2 0,3.3 L0,22 C0,23.7 1.4,25.2 3.3,25.2 Z M2.9,15.4 L2.9,3.3 C2.9,3.1 3,3 3.1,3 C3.1,3 3.2,3 3.2,3 C3.3,3 3.3,3 3.4,3.1 L7.1,6.8 L2.9,15.4 Z M3,21.8 L12.4,3.1 C12.4,3.1 12.5,2.9 12.7,2.9 C12.9,2.9 12.9,3 13,3.1 L22.4,21.8 C22.5,21.9 22.4,22 22.4,22.1 C22.4,22.2 22.3,22.2 22.1,22.2 L3.2,22.2 C3.1,22.2 3,22.1 2.9,22.1 C2.9,22 2.9,21.9 3,21.8 Z M22.1,3 C22.2,3 22.3,3.1 22.3,3.3 L22.3,15.4 L18,6.8 L21.7,3 C21.8,2.9 22,2.9 22.1,3 Z" id="Shape"></path>
            <path d="M28,19.5 C27.1,20.4 26.8,21.8 27.3,23 C27.8,24.2 29.1,25 30.5,25 L49,25 C50.8,25 52.3,23.5 52.3,21.7 L52.3,2.2 C52.2,1 51.2,0 50,0 L30.4,0 C29.3,0 28.3,0.6 27.7,1.5 C27.1,2.5 27.1,3.6 27.6,4.6 L32.7,14.9 L28,19.5 L28,19.5 Z M49.3,21.8 C49.3,22 49.2,22.1 49,22.1 L30.3,22.1 C30.2,22.1 30.1,22 30,21.9 C29.9,21.8 30,21.6 30.1,21.5 L48.7,3 C48.8,2.9 48.9,2.9 48.9,2.9 C49,2.9 49,2.9 49,2.9 C49.1,2.9 49.2,3 49.2,3.2 L49.2,21.8 L49.3,21.8 Z M34.8,12.8 L30.1,3.4 L30.1,3.4 C30,3.3 30.1,3.2 30.1,3.1 C30.1,3 30.2,3 30.4,3 L44.7,3 L34.8,12.8 Z" id="Shape"></path>
            <path d="M5.5,28 C4.6,27.1 3.2,26.8 2,27.3 C0.8,27.8 0,29 0,30.3 L0,49.2 C0,50.9 1.4,52.3 3.1,52.3 L22,52.3 C23.3,52.3 24.5,51.5 25,50.3 C25.5,49.1 25.2,47.7 24.3,46.8 L5.5,28 Z M11.4,49.2 C11.4,49.3 11.3,49.3 11.3,49.3 L3.1,49.3 C3,49.3 3,49.2 3,49.2 L3,32.2 L11.5,49.1 C11.4,49.1 11.4,49.2 11.4,49.2 Z M22.2,49.1 C22.1,49.2 22,49.3 21.9,49.3 L14.3,49.3 C14.3,48.8 14.2,48.3 14,47.8 L6.8,33.4 L22.1,48.7 C22.2,48.8 22.3,48.9 22.2,49.1 Z" id="Shape"></path>
        </g>
    </g>
</svg>